<svg width="88" height="88" viewBox="0 0 88 88" fill="none" xmlns="http://www.w3.org/2000/svg">
<circle cx="44" cy="44" r="43.5" fill="#E7F2FD"/>
<path d="M58.6082 31.4062L45.1082 25.7812C44.7566 25.6406 44.1941 25.5703 43.8425 25.5703C43.4207 25.5703 42.8582 25.6406 42.5066 25.7812L29.0066 31.4062C27.741 31.9688 26.9675 33.1641 26.9675 34.5C26.9675 52.6406 40.2566 61.5 43.7722 61.5C47.4285 61.5 60.7175 52.5 60.7175 34.5C60.7175 33.1641 59.8738 31.9688 58.6082 31.4062ZM43.7722 60.375C40.7488 60.375 28.0925 51.7969 28.0925 34.5C28.0925 33.5859 28.5847 32.7422 29.4285 32.3906L42.8582 26.8359C43.1394 26.7656 43.5613 26.625 43.8425 26.625C44.0535 26.625 44.4753 26.7656 44.6863 26.8359L58.1863 32.4609C59.03 32.8125 59.5925 33.5859 59.5925 34.5C59.5925 54.0469 44.8269 60.375 43.7722 60.375ZM51.155 37.875C50.9441 37.875 50.8035 37.875 50.7332 38.0156L41.5925 47.7891L36.9519 42.5859C36.8113 42.4453 36.6707 42.375 36.53 42.375C36.1785 42.375 35.9675 42.5859 35.9675 42.9375C35.9675 43.0781 35.9675 43.1484 36.1082 43.2891L41.1707 48.9141C41.241 49.0547 41.4519 49.0547 41.5925 49.125C41.7332 49.125 41.8738 49.0547 41.9441 48.9141L51.5066 38.7891C51.6472 38.7188 51.7175 38.5781 51.7175 38.4375C51.7175 38.0859 51.366 37.875 51.155 37.875Z" fill="#0D7EE7"/>
</svg>
