<svg width="88" height="88" viewBox="0 0 88 88" fill="none" xmlns="http://www.w3.org/2000/svg">
<circle cx="44" cy="44" r="43.5" fill="#E7F2FD"/>
<path d="M43.8425 32.1094C44.1941 32.1094 44.405 32.3203 44.405 32.6719V34.0078C44.616 34.0078 44.7566 34.0781 44.8972 34.0781C45.3191 34.1484 46.4441 34.3594 46.7957 34.4297C47.1472 34.5703 47.2878 34.8516 47.2175 35.1328C47.1472 35.4141 46.866 35.625 46.5144 35.5547C46.1628 35.4844 45.1082 35.2734 44.7566 35.2031C43.6316 34.9922 42.6472 35.1328 41.9441 35.4844C41.241 35.7656 40.8191 36.2578 40.7488 36.8203C40.6785 37.2422 40.6785 37.5938 40.8191 37.8047C40.9597 38.0859 41.1707 38.2969 41.4519 38.5078C42.0847 38.9297 42.9988 39.2109 44.0535 39.4922C45.0378 39.8438 46.1628 40.1953 46.9363 40.7578C47.3582 41.0391 47.78 41.4609 47.991 41.9531C48.2019 42.4453 48.2722 43.0078 48.1316 43.6406C47.9207 44.7656 47.2175 45.5391 46.2332 45.9609C45.741 46.1719 45.1082 46.3125 44.405 46.3125V47.6484C44.405 48 44.1941 48.2109 43.8425 48.2109C43.5613 48.2109 43.28 48 43.28 47.6484V46.3125C43.1394 46.3125 42.9988 46.2422 42.8582 46.2422C42.155 46.1016 41.1003 45.75 40.3269 45.5391C40.1863 45.4688 40.0457 45.3984 39.9753 45.3984C39.6238 45.2578 39.4832 44.9766 39.5535 44.6953C39.6941 44.3438 39.9753 44.2031 40.3269 44.3438C40.3972 44.3438 40.6082 44.4141 40.7488 44.4844C41.4519 44.6953 42.4363 45.0469 42.9988 45.1172C44.1238 45.3281 45.1082 45.1875 45.8113 44.9062C46.5144 44.625 46.9363 44.1328 47.0066 43.5C47.0769 43.0078 47.0769 42.6562 46.9363 42.375C46.7957 42.0938 46.5847 41.8828 46.3035 41.6719C45.6707 41.1797 44.7566 40.8984 43.7019 40.6172L43.5613 40.5469C42.6472 40.2656 41.5925 39.9844 40.8191 39.4219C40.3972 39.1406 40.0457 38.7891 39.7644 38.2969C39.5535 37.8047 39.4832 37.2422 39.6238 36.6094C39.7644 35.625 40.5378 34.8516 41.4519 34.4297C42.0144 34.2188 42.6472 34.0781 43.28 34.0078V32.6719C43.28 32.3203 43.5613 32.1094 43.8425 32.1094ZM58.4675 40.125C58.4675 48.2109 51.8582 54.75 43.8425 54.75C35.7566 54.75 29.2175 48.2109 29.2175 40.125C29.2175 32.1094 35.7566 25.5 43.8425 25.5C51.8582 25.5 58.4675 32.1094 58.4675 40.125ZM43.8425 26.625C36.3191 26.625 30.3425 32.6719 30.3425 40.125C30.3425 47.5781 36.3191 53.625 43.8425 53.625C51.2957 53.625 57.3425 47.5781 57.3425 40.125C57.3425 32.6719 51.2957 26.625 43.8425 26.625ZM29.2175 51.375H31.2566C31.6082 51.7969 31.9597 52.1484 32.3113 52.5H29.2175C27.9519 52.5 26.9675 53.5547 26.9675 54.75V58.125C26.9675 59.3906 27.9519 60.375 29.2175 60.375H58.4675C59.6628 60.375 60.7175 59.3906 60.7175 58.125V54.75C60.7175 53.5547 59.6628 52.5 58.4675 52.5H55.3035C55.655 52.1484 56.0066 51.7969 56.3582 51.375H58.4675C60.2957 51.375 61.8425 52.9219 61.8425 54.75V58.125C61.8425 60.0234 60.2957 61.5 58.4675 61.5H29.2175C27.3191 61.5 25.8425 60.0234 25.8425 58.125V54.75C25.8425 52.9219 27.3191 51.375 29.2175 51.375ZM57.3425 56.4375C57.6238 56.4375 57.905 56.7188 57.905 57C57.905 57.3516 57.6238 57.5625 57.3425 57.5625H30.3425C29.991 57.5625 29.78 57.3516 29.78 57C29.78 56.7188 29.991 56.4375 30.3425 56.4375H57.3425Z" fill="#0D7EE7"/>
</svg>
