<svg width="88" height="88" viewBox="0 0 88 88" fill="none" xmlns="http://www.w3.org/2000/svg">
<circle cx="44" cy="44" r="43.5" fill="#E7F2FD"/>
<path d="M57.6238 34.0625C57.6238 36.6055 55.491 38.6562 53.03 38.6562C50.4871 38.6562 48.4363 36.6055 48.4363 34.0625C48.4363 31.6016 50.4871 29.4688 53.03 29.4688C55.491 29.4688 57.6238 31.6016 57.6238 34.0625ZM53.03 37.3438C54.8347 37.3438 56.3113 35.9492 56.3113 34.0625C56.3113 32.2578 54.8347 30.7812 53.03 30.7812C51.1433 30.7812 49.7488 32.2578 49.7488 34.0625C49.7488 35.9492 51.1433 37.3438 53.03 37.3438ZM51.7996 60.0664L44.0066 63.9219C42.6941 64.5781 41.2175 63.5938 41.2175 62.1992V53.0938C41.2175 51.207 40.3972 49.4023 39.0847 48.0078C37.6902 46.6953 35.8855 45.875 33.9988 45.875H24.8933C23.4988 45.875 22.5144 44.3984 23.1707 43.0859L27.0261 35.293C27.8464 33.7344 29.405 32.75 31.1277 32.75H39.0027C45.8933 22.4141 56.3933 21.6758 62.4636 22.7422C63.448 22.9062 64.1863 23.6445 64.3503 24.6289C65.4168 30.6992 64.6785 41.1992 54.3425 48.0898V55.9648C54.3425 57.6875 53.3582 59.2461 51.7996 60.0664ZM42.366 51.6992C52.7019 49.1562 58.116 44.3164 60.823 39.3125C63.6941 34.1445 63.6941 28.5664 63.0378 24.793C62.9558 24.3828 62.7097 24.1367 62.2996 24.0547C58.5261 23.3984 52.948 23.3984 47.78 26.2695C42.7761 28.9766 37.9363 34.3906 35.3933 44.7266C37.116 44.9727 38.7566 45.875 39.9871 47.1055C41.2175 48.3359 42.0378 49.9766 42.366 51.6992ZM42.53 62.1992C42.53 62.6914 43.0222 62.9375 43.4324 62.7734L51.1433 58.918C52.2918 58.3438 53.03 57.1953 53.03 55.9648V48.9102C50.1589 50.5508 46.7136 51.9453 42.448 53.0117L42.53 53.0938V62.1992ZM34.0808 44.5625C35.1472 40.3789 36.5418 36.9336 38.1824 34.0625H31.1277C29.8972 34.0625 28.7488 34.8008 28.1746 35.9492L24.3191 43.6602C24.155 44.0703 24.4011 44.5625 24.8933 44.5625H33.9988H34.0808ZM36.4597 60.8047C32.4402 64.9062 22.8425 64.25 22.8425 64.25C22.8425 64.25 22.1863 54.6523 26.2058 50.6328C29.0769 47.8438 33.6707 47.8438 36.4597 50.6328C39.2488 53.4219 39.2488 58.0156 36.4597 60.8047ZM35.5574 51.5352C33.2605 49.2383 29.4871 49.2383 27.1902 51.5352C25.4675 53.2578 24.6472 56.293 24.3191 59.082C24.155 60.4766 24.155 61.7891 24.155 62.6914C24.073 62.7734 24.155 62.8555 24.155 62.9375C24.2371 62.9375 24.3191 62.9375 24.4011 62.9375C25.3035 62.9375 26.616 62.9375 28.0105 62.7734C30.7996 62.4453 33.8347 61.625 35.5574 59.9023C37.8543 57.6055 37.8543 53.832 35.5574 51.5352Z" fill="#0D7EE7"/>
</svg>
