<svg width="88" height="88" viewBox="0 0 88 88" fill="none" xmlns="http://www.w3.org/2000/svg">
<circle cx="44" cy="44" r="43.5" fill="#E7F2FD"/>
<path d="M32.5925 30C32.5925 27.5391 34.5613 25.5 37.0925 25.5C39.5535 25.5 41.5925 27.5391 41.5925 30C41.5925 31.6172 40.7488 32.9531 39.5535 33.7969L42.155 39.5625C42.9988 39.2109 43.9832 39 44.9675 39C47.3582 39 49.5378 40.125 50.9441 41.8828L57.9753 36.8203C57.5535 36.1875 57.3425 35.3438 57.3425 34.5C57.3425 32.0391 59.3113 30 61.8425 30C64.3035 30 66.3425 32.0391 66.3425 34.5C66.3425 37.0312 64.3035 39 61.8425 39C60.5769 39 59.4519 38.5078 58.6082 37.7344L51.6472 42.7969C52.3503 43.9922 52.8425 45.3984 52.8425 46.875C52.8425 48.2109 52.491 49.4062 51.9285 50.4609L58.2566 54.2578C59.1003 53.2031 60.366 52.5 61.8425 52.5C64.3035 52.5 66.3425 54.5391 66.3425 57C66.3425 59.5312 64.3035 61.5 61.8425 61.5C59.3113 61.5 57.3425 59.5312 57.3425 57C57.3425 56.3672 57.4128 55.8047 57.6941 55.2422L51.366 51.4453C49.9597 53.4844 47.5691 54.75 44.9675 54.75C40.7488 54.75 37.3738 51.5859 37.0925 47.4375H30.2722C29.991 49.6875 28.0925 51.375 25.8425 51.375C23.3113 51.375 21.3425 49.4062 21.3425 46.875C21.3425 44.4141 23.3113 42.375 25.8425 42.375C28.0925 42.375 29.991 44.1328 30.2722 46.3125H37.0925C37.3035 43.5703 38.8503 41.25 41.1707 39.9844L38.4988 34.2891C38.0769 34.4297 37.5847 34.5 37.0925 34.5C34.5613 34.5 32.5925 32.5312 32.5925 30ZM37.0925 33.375C38.9207 33.375 40.4675 31.8984 40.4675 30C40.4675 28.1719 38.9207 26.625 37.0925 26.625C35.1941 26.625 33.7175 28.1719 33.7175 30C33.7175 31.8984 35.1941 33.375 37.0925 33.375ZM22.4675 46.875C22.4675 48.7734 23.9441 50.25 25.8425 50.25C27.6707 50.25 29.2175 48.7734 29.2175 46.875C29.2175 45.0469 27.6707 43.5 25.8425 43.5C23.9441 43.5 22.4675 45.0469 22.4675 46.875ZM61.8425 60.375C63.6707 60.375 65.2175 58.8984 65.2175 57C65.2175 55.1719 63.6707 53.625 61.8425 53.625C60.7878 53.625 59.8738 54.1172 59.241 54.8203L59.3113 54.8906L58.6785 55.8047C58.5378 56.1562 58.4675 56.5781 58.4675 57C58.4675 58.8984 59.9441 60.375 61.8425 60.375ZM61.8425 37.875C63.6707 37.875 65.2175 36.3984 65.2175 34.5C65.2175 32.6719 63.6707 31.125 61.8425 31.125C59.9441 31.125 58.4675 32.6719 58.4675 34.5C58.4675 36.3984 59.9441 37.875 61.8425 37.875ZM44.9675 53.625C48.6941 53.625 51.7175 50.6016 51.7175 46.875C51.7175 43.1484 48.6941 40.125 44.9675 40.125C41.1707 40.125 38.2175 43.1484 38.2175 46.875C38.2175 50.6016 41.1707 53.625 44.9675 53.625Z" fill="#0D7EE7"/>
</svg>
