<svg width="26" height="26" viewBox="0 0 26 26" fill="none" xmlns="http://www.w3.org/2000/svg">
<circle cx="13" cy="13" r="13" fill="#EEF1F3"/>
<path d="M10.7241 10.7256H8.1521V18.4535H10.7241V10.7256Z" fill="#8694A5"/>
<path d="M10.8935 8.33484C10.8768 7.57712 10.335 7 9.45512 7C8.57524 7 8 7.57712 8 8.33484C8 9.07687 8.55823 9.67061 9.42173 9.67061H9.43817C10.335 9.67061 10.8935 9.07687 10.8935 8.33484Z" fill="#8694A5"/>
<path d="M20.0001 14.0224C20.0001 11.6487 18.7312 10.5439 17.0387 10.5439C15.6731 10.5439 15.0617 11.294 14.7203 11.8202V10.7256H12.1479C12.1819 11.4508 12.1479 18.4536 12.1479 18.4536H14.7203V14.1376C14.7203 13.9067 14.737 13.6763 14.805 13.5109C14.9909 13.0495 15.4141 12.5718 16.1247 12.5718C17.0558 12.5718 17.428 13.2804 17.428 14.3189V18.4534H20L20.0001 14.0224Z" fill="#8694A5"/>
</svg>
