<svg width="26" height="26" viewBox="0 0 26 26" fill="none" xmlns="http://www.w3.org/2000/svg">
<circle cx="13" cy="13" r="13" fill="#EEF1F3"/>
<path d="M19 8.11723H18.9881C18.4399 8.24619 18.1539 8.43376 18.1539 9.11372V17.0856C18.2016 17.6131 18.4876 17.7655 18.9881 17.8828H19V18H15.1152V17.8828H15.1271C15.6395 17.7773 15.9136 17.6131 15.9613 17.0856V9.32474L12.2195 17.9766H12.0169L8.38232 9.5592V16.8863C8.38232 17.5545 8.65641 17.7304 9.21649 17.8593H9.2284V17.9766H7V17.8593H7.01192C7.56008 17.7304 7.84608 17.5545 7.84608 16.8863V9.10199C7.84608 8.43376 7.572 8.25791 7.01192 8.12896H7V8.01172H10.289L13.1251 14.5533L15.9494 8H19V8.11723Z" fill="#8694A5"/>
</svg>
