<svg width="26" height="26" viewBox="0 0 26 26" fill="none" xmlns="http://www.w3.org/2000/svg">
<circle cx="13" cy="13" r="13" fill="#EEF1F3"/>
<path d="M12.8267 10.6602L12.8527 11.0927L12.4192 11.0397C10.8411 10.8367 9.46247 10.1482 8.29193 8.99183L7.71966 8.41807L7.57226 8.84177C7.26012 9.78627 7.45955 10.7837 8.10984 11.4546C8.45667 11.8253 8.37864 11.8783 7.78036 11.6576C7.57226 11.587 7.39018 11.534 7.37284 11.5605C7.31214 11.6223 7.52024 12.4256 7.68498 12.7434C7.91042 13.1847 8.36996 13.6172 8.87286 13.8732L9.29773 14.0762L8.79483 14.0851C8.30927 14.0851 8.29193 14.0939 8.34395 14.2793C8.51737 14.853 9.20235 15.4621 9.96537 15.7269L10.5029 15.9123L10.0347 16.1948C9.34108 16.6008 8.52604 16.8303 7.71099 16.848C7.32081 16.8568 7 16.8921 7 16.9186C7 17.0068 8.05782 17.5012 8.67344 17.6954C10.5203 18.2691 12.714 18.022 14.3614 17.0422C15.5319 16.3448 16.7025 14.959 17.2487 13.6172C17.5435 12.9022 17.8383 11.5958 17.8383 10.9691C17.8383 10.5631 17.8643 10.5101 18.3499 10.0246C18.636 9.74214 18.9048 9.43319 18.9568 9.34492C19.0435 9.1772 19.0349 9.1772 18.5927 9.32726C17.8557 9.59208 17.7516 9.55677 18.1158 9.15955C18.3846 8.87708 18.7054 8.36511 18.7054 8.21505C18.7054 8.18857 18.5753 8.2327 18.4279 8.31215C18.2719 8.40042 17.925 8.53282 17.6649 8.61227L17.1967 8.76233L16.7718 8.47103C16.5377 8.31215 16.2082 8.1356 16.0348 8.08264C15.5926 7.95906 14.9163 7.97672 14.5175 8.11795C13.4336 8.51517 12.7486 9.53911 12.8267 10.6602Z" fill="#8694A5"/>
</svg>
