<svg width="64" height="64" viewBox="0 0 64 64" fill="none" xmlns="http://www.w3.org/2000/svg">
<g clip-path="url(#clip0_64_1333)">
<path d="M63.0394 39.741C58.7654 56.884 41.4024 67.317 24.2574 63.042C7.11937 58.768 -3.31363 41.404 0.962367 24.262C5.23437 7.11699 22.5974 -3.31701 39.7374 0.956985C56.8814 5.23099 67.3134 22.597 63.0394 39.741Z" fill="#F0B90B"/>
<path d="M17.1872 31.8744L17.2103 40.3359L24.4 44.5667V49.5205L13.0026 42.8359V29.4L17.1872 31.8744ZM17.1872 23.4128V28.3436L13 25.8667V20.9359L17.1872 18.459L21.3949 20.9359L17.1872 23.4128ZM27.4026 20.9359L31.5897 18.459L35.7974 20.9359L31.5897 23.4128L27.4026 20.9359Z" fill="white"/>
<path d="M20.2129 38.5821V33.6282L24.4001 36.1051V41.0359L20.2129 38.5821ZM27.4026 46.341L31.5898 48.818L35.7975 46.341V51.2718L31.5898 53.7487L27.4026 51.2718V46.341ZM41.8026 20.9359L45.9898 18.459L50.1975 20.9359V25.8667L45.9898 28.3436V23.4128L41.8026 20.9359ZM45.9898 40.3359L46.0129 31.8744L50.2001 29.3974V42.8333L38.8026 49.518V44.5641L45.9898 40.3359Z" fill="white"/>
<path d="M42.9872 38.582L38.8 41.0359V36.1051L42.9872 33.6282V38.582Z" fill="white"/>
<path d="M42.9872 25.1667L43.0103 30.1205L35.8001 34.3513V42.8333L31.6129 45.2872L27.4257 42.8333V34.3513L20.2155 30.1205V25.1667L24.4206 22.6897L31.5872 26.941L38.7975 22.6897L43.0052 25.1667H42.9872ZM20.2129 16.7077L31.5898 10L42.9872 16.7077L38.8001 19.1846L31.5898 14.9333L24.4001 19.1846L20.2129 16.7077Z" fill="white"/>
</g>
<defs>
<clipPath id="clip0_64_1333">
<rect width="64" height="64" fill="white"/>
</clipPath>
</defs>
</svg>
