<svg width="64" height="64" viewBox="0 0 64 64" fill="none" xmlns="http://www.w3.org/2000/svg">
<g clip-path="url(#clip0_64_1352)">
<path d="M32 0C49.6667 0 64 14.3333 64 32C64 49.6667 49.6667 64 32 64C14.3333 64 0 49.6667 0 32C0 14.3333 14.3333 0 32 0Z" fill="#70D44B"/>
<path d="M32 13.0667C33.6889 13.0667 35.2223 14.0222 35.9778 15.5333L48.4667 40.5333C49.5556 42.7333 48.6667 45.4 46.4667 46.4889C45.8445 46.8 45.1778 46.9556 44.4889 46.9556H19.5112C17.0667 46.9556 15.0667 44.9556 15.0667 42.5111C15.0667 41.8222 15.2223 41.1333 15.5334 40.5333L28.0223 15.5333C28.7778 14 30.3112 13.0444 32 13.0667ZM32 10C29.1556 10 26.5556 11.6 25.2889 14.1556L12.8 39.1556C10.9556 42.8667 12.4445 47.3556 16.1556 49.2222C17.2 49.7333 18.3556 50.0222 19.5112 50.0222H44.5112C48.6445 50.0222 52.0223 46.6667 52.0223 42.5333C52.0223 41.3778 51.7556 40.2222 51.2223 39.1778L38.7112 14.1556C37.4445 11.6 34.8445 10 32 10Z" fill="white"/>
</g>
<defs>
<clipPath id="clip0_64_1352">
<rect width="64" height="64" fill="white"/>
</clipPath>
</defs>
</svg>
