<svg width="64" height="64" viewBox="0 0 64 64" fill="none" xmlns="http://www.w3.org/2000/svg">
<g clip-path="url(#clip0_64_1358)">
<path d="M63.0394 39.741C58.7654 56.884 41.4024 67.317 24.2574 63.042C7.11937 58.768 -3.31363 41.404 0.962367 24.262C5.23437 7.11699 22.5974 -3.31701 39.7374 0.956985C56.8814 5.23099 67.3134 22.597 63.0394 39.741Z" fill="#8B4EE7"/>
<path d="M31.7146 12C23.3093 12.0022 16.4959 18.8156 16.4937 27.2209C16.4947 28.1824 16.5848 29.1418 16.763 30.0867L18.7324 28.7402C22.189 26.3689 27.7958 26.3689 31.2524 28.7402L33.3143 30.155L34.4356 30.9227C37.5506 33.0569 42.5987 33.0569 45.7096 30.9227L46.6261 30.2956C48.3153 22.0563 43.0054 14.0076 34.766 12.3184C33.7646 12.113 32.745 12.0091 31.7226 12.0081L31.7146 12Z" fill="#F2B705"/>
<path d="M40.2717 36.3647C38.0979 36.4062 35.9612 35.7989 34.1342 34.6203L30.955 32.4419C27.4263 30.2765 22.9805 30.2765 19.4519 32.4419L17.3981 33.8487C16.9907 34.1272 16.4347 34.0228 16.1561 33.6155C15.8775 33.2082 15.9819 32.6521 16.3892 32.3735L18.443 30.9668C22.5829 28.3945 27.8239 28.3945 31.9638 30.9668L35.1431 33.1453C38.2886 35.0742 42.2506 35.0742 45.3962 33.1453L46.6019 32.3213C47.0093 32.0428 47.5653 32.1471 47.8439 32.5545C48.1225 32.9618 48.0181 33.5178 47.6108 33.7964L46.405 34.6203C44.5782 35.7959 42.4437 36.403 40.2717 36.3647Z" fill="#53CBC8"/>
<path d="M25.1391 42.7594V34.1582C25.1318 33.977 25.1385 33.7956 25.1592 33.6156C25.2163 33.1258 25.6308 32.7562 26.1238 32.7554C26.6011 32.77 26.9916 33.1399 27.0322 33.6156C27.0688 33.9142 27.0795 34.2154 27.0643 34.5159V51.6661C27.0844 52.2206 26.6511 52.6864 26.0965 52.7066C26.0909 52.7068 26.0853 52.7069 26.0796 52.707C25.5344 52.6767 25.117 52.21 25.1474 51.6648C25.1483 51.6491 25.1496 51.6334 25.1512 51.6178V45.8984L25.1391 42.7594Z" fill="#53CBC8"/>
<path d="M23.3304 38.4306V42.7031C23.3304 43.4345 22.9285 43.9088 22.3859 43.9088C21.8433 43.9088 21.4132 43.3984 21.4092 42.7031V34.1501C21.4092 33.4025 21.8473 32.8961 22.4141 32.9443C22.9807 32.9926 23.3184 33.4226 23.3224 34.1742C23.3304 35.5809 23.3304 37.0037 23.3304 38.4306Z" fill="#53CBC8"/>
<path d="M28.8811 38.4226V35.4243C28.8811 34.7289 29.2509 34.2787 29.8015 34.2787C30.3713 34.3055 30.8116 34.7891 30.7849 35.3589C30.7843 35.3727 30.7834 35.3864 30.7822 35.4001C30.801 37.4419 30.801 39.485 30.7822 41.5295C30.7822 42.2248 30.3803 42.6468 29.8055 42.6388C29.2307 42.6308 28.8811 42.2047 28.8771 41.4933V38.4266L28.8811 38.4226Z" fill="#53CBC8"/>
<path d="M17.6834 39.0416V36.0392C17.6834 35.3399 18.0531 34.8897 18.6038 34.8897C19.1736 34.9164 19.6139 35.4 19.5872 35.9699C19.5866 35.9836 19.5857 35.9974 19.5845 36.011C19.6032 38.0555 19.6032 40.1 19.5845 42.1445C19.5845 42.8398 19.1826 43.2578 18.6118 43.2538C18.0411 43.2498 17.6834 42.8197 17.6793 42.1043V39.0416H17.6834Z" fill="#53CBC8"/>
<path d="M33.5474 36.4934C34.0691 36.4934 34.492 36.9162 34.492 37.4379V39.0697C34.492 39.5913 34.0691 40.0142 33.5474 40.0142C33.0258 40.0142 32.6029 39.5913 32.6029 39.0697V37.4379C32.6029 36.9162 33.0258 36.4934 33.5474 36.4934Z" fill="#53CBC8"/>
<path d="M37.2854 37.9242C37.807 37.9242 38.2299 38.3471 38.2299 38.8687V48.0286C38.2299 48.5503 37.807 48.9731 37.2854 48.9731C36.7637 48.9731 36.3408 48.5503 36.3408 48.0286V38.8687C36.3408 38.3471 36.7637 37.9242 37.2854 37.9242Z" fill="#53CBC8"/>
<path d="M40.9991 38.2779C41.5207 38.2779 41.9436 38.7008 41.9436 39.2224V47.0076C41.9436 47.5293 41.5207 47.9521 40.9991 47.9521C40.4775 47.9521 40.0546 47.5293 40.0546 47.0076V39.2224C40.0546 38.7008 40.4775 38.2779 40.9991 38.2779Z" fill="#53CBC8"/>
<path d="M44.7651 37.3896C45.2867 37.3896 45.7096 37.8126 45.7096 38.3341V41.6902C45.7096 42.2119 45.2867 42.6348 44.7651 42.6348C44.2435 42.6348 43.8206 42.2119 43.8206 41.6902V38.3341C43.8206 37.8126 44.2435 37.3896 44.7651 37.3896Z" fill="#53CBC8"/>
</g>
<defs>
<clipPath id="clip0_64_1358">
<rect width="64" height="64" fill="white"/>
</clipPath>
</defs>
</svg>
