<svg width="64" height="64" viewBox="0 0 64 64" fill="none" xmlns="http://www.w3.org/2000/svg">
<g clip-path="url(#clip0_64_1326)">
<path d="M63.0394 39.741C58.7654 56.884 41.4024 67.317 24.2574 63.042C7.11937 58.768 -3.31363 41.404 0.962367 24.262C5.23437 7.11699 22.5974 -3.31701 39.7374 0.956985C56.8814 5.23099 67.3134 22.597 63.0394 39.741Z" fill="white"/>
<path fill-rule="evenodd" clip-rule="evenodd" d="M64 32C64 49.6733 49.6733 64 32 64C14.3269 64 0 49.6733 0 32C0 14.3269 14.3269 0 32 0C49.6733 0 64 14.3269 64 32ZM22.9321 44.7344H16.7218C15.4168 44.7344 14.7722 44.7344 14.3792 44.483C13.9547 44.2077 13.6953 43.7518 13.6638 43.2486C13.6402 42.785 13.9626 42.2188 14.6072 41.0868L29.9412 14.0585C30.5937 12.9107 30.9238 12.3369 31.3404 12.1246C31.7885 11.8967 32.3231 11.8967 32.7712 12.1246C33.1878 12.3369 33.518 12.9107 34.1705 14.0585L37.3228 19.5613L37.3389 19.5894C38.0436 20.8207 38.401 21.4451 38.557 22.1004C38.7299 22.8158 38.7299 23.5704 38.557 24.2858C38.3998 24.9462 38.046 25.5751 37.3307 26.825L29.2761 41.0632L29.2552 41.0997C28.5459 42.3411 28.1864 42.9703 27.6881 43.445C27.1457 43.964 26.4932 44.3411 25.7779 44.5537C25.1254 44.7344 24.3943 44.7344 22.9321 44.7344ZM38.6152 44.7344H47.5138C48.8266 44.7344 49.4871 44.7344 49.8804 44.4753C50.3048 44.2001 50.5719 43.736 50.5958 43.2332C50.6184 42.7846 50.3031 42.2404 49.6852 41.1742C49.6639 41.1379 49.6426 41.101 49.6209 41.0634L45.1635 33.4381L45.1128 33.3522C44.4864 32.293 44.1702 31.7581 43.7642 31.5514C43.3163 31.3234 42.7892 31.3234 42.3414 31.5514C41.9326 31.7636 41.6024 32.3218 40.9499 33.4459L36.5084 41.0713L36.4932 41.0975C35.843 42.2198 35.518 42.7807 35.5415 43.2409C35.5729 43.7441 35.8323 44.2077 36.2568 44.483C36.642 44.7344 37.3024 44.7344 38.6152 44.7344Z" fill="#E84142"/>
</g>
<defs>
<clipPath id="clip0_64_1326">
<rect width="64" height="64" fill="white"/>
</clipPath>
</defs>
</svg>
