<svg width="150" height="150" viewBox="0 0 150 150" fill="none" xmlns="http://www.w3.org/2000/svg">
<g clip-path="url(#clip0_801_11)">
<path d="M75 150C116.421 150 150 116.421 150 75C150 33.5786 116.421 0 75 0C33.5786 0 0 33.5786 0 75C0 116.421 33.5786 150 75 150Z" fill="#F3BA2F"/>
<path fill-rule="evenodd" clip-rule="evenodd" d="M94.4517 82.9757L105.765 94.2566L75.0109 124.978L44.2891 94.2566L55.6025 82.9757L75.0109 102.384L94.4517 82.9757ZM75.0109 63.5349L86.4868 75.0108L75.0109 86.4868L63.5674 75.0433V75.0108L65.583 72.9952L66.5583 72.0199L75.0109 63.5349ZM36.3243 63.6974L47.6376 75.0108L36.3243 86.2917L25.0109 74.9783L36.3243 63.6974ZM113.697 63.6974L125.011 75.0108L113.697 86.2917L102.384 74.9783L113.697 63.6974ZM75.0109 25.0108L105.733 55.7326L94.4192 67.0459L75.0109 47.6051L55.6025 67.0134L44.2891 55.7326L75.0109 25.0108Z" fill="white"/>
</g>
<defs>
<clipPath id="clip0_801_11">
<rect width="150" height="150" fill="white"/>
</clipPath>
</defs>
</svg>
