<svg width="64" height="64" viewBox="0 0 64 64" fill="none" xmlns="http://www.w3.org/2000/svg">
<g clip-path="url(#clip0_64_1344)">
<path d="M63.0394 39.741C58.7654 56.884 41.4024 67.317 24.2574 63.042C7.11937 58.768 -3.31363 41.404 0.962367 24.262C5.23437 7.11699 22.5974 -3.31701 39.7374 0.956985C56.8814 5.23099 67.3134 22.597 63.0394 39.741Z" fill="#8247E5"/>
<path d="M40.4323 26.1343C39.7943 25.7761 38.974 25.7761 38.2448 26.1343L33.1406 29.0895L29.6771 30.9701L24.6641 33.9253C24.026 34.2835 23.2057 34.2835 22.4766 33.9253L18.5573 31.597C17.9193 31.2388 17.4635 30.5223 17.4635 29.7164V25.2388C17.4635 24.5223 17.8281 23.8059 18.5573 23.3582L22.4766 21.1194C23.1146 20.7611 23.9349 20.7611 24.6641 21.1194L28.5833 23.4477C29.2214 23.8059 29.6771 24.5223 29.6771 25.3283V28.2835L33.1406 26.3134V23.2686C33.1406 22.5522 32.776 21.8358 32.0469 21.388L24.7552 17.1791C24.1172 16.8208 23.2969 16.8208 22.5677 17.1791L15.0938 21.4776C14.3646 21.8358 14 22.5522 14 23.2686V31.6865C14 32.4029 14.3646 33.1194 15.0938 33.5671L22.4766 37.7761C23.1146 38.1343 23.9349 38.1343 24.6641 37.7761L29.6771 34.9104L33.1406 32.9403L38.1536 30.0746C38.7917 29.7164 39.612 29.7164 40.3411 30.0746L44.2604 32.3134C44.8984 32.6716 45.3542 33.388 45.3542 34.194V38.6716C45.3542 39.388 44.9896 40.1044 44.2604 40.5522L40.4323 42.791C39.7943 43.1492 38.974 43.1492 38.2448 42.791L34.3255 40.5522C33.6875 40.194 33.2318 39.4776 33.2318 38.6716V35.8059L29.7682 37.7761V40.7313C29.7682 41.4477 30.1328 42.1641 30.862 42.6119L38.2448 46.8208C38.8828 47.1791 39.7031 47.1791 40.4323 46.8208L47.8151 42.6119C48.4531 42.2537 48.9089 41.5373 48.9089 40.7313V32.2238C48.9089 31.5074 48.5443 30.791 47.8151 30.3432L40.4323 26.1343Z" fill="white"/>
</g>
<defs>
<clipPath id="clip0_64_1344">
<rect width="64" height="64" fill="white"/>
</clipPath>
</defs>
</svg>
