<svg width="100" height="100" viewBox="0 0 100 100" fill="none" xmlns="http://www.w3.org/2000/svg">
<rect width="100" height="100" rx="21" fill="white"/>
<path d="M46.9426 16.9532C49.1439 15.6823 51.8561 15.6823 54.0574 16.9532L77.4426 30.4546C79.6439 31.7256 81 34.0744 81 36.6163V63.6191C81 66.161 79.6439 68.5098 77.4426 69.7808L54.0574 83.2822C51.8561 84.5531 49.1439 84.5531 46.9426 83.2822L23.5574 69.7808C21.3561 68.5098 20 66.161 20 63.6191V36.6163C20 34.0744 21.3561 31.7256 23.5574 30.4546L46.9426 16.9532Z" fill="#0D7EE7"/>
<path fill-rule="evenodd" clip-rule="evenodd" d="M75.6639 33.5355L52.2787 20.034C51.178 19.3985 49.822 19.3985 48.7213 20.034L25.3361 33.5355C24.2354 34.1709 23.5574 35.3453 23.5574 36.6163V63.6191C23.5574 64.8901 24.2354 66.0645 25.3361 66.7L48.7213 80.2014C49.822 80.8369 51.178 80.8369 52.2787 80.2014L75.6639 66.7C76.7645 66.0645 77.4426 64.8901 77.4426 63.6191V36.6163C77.4426 35.3453 76.7645 34.1709 75.6639 33.5355ZM54.0574 16.9532C51.8561 15.6823 49.1439 15.6823 46.9426 16.9532L23.5574 30.4546C21.3561 31.7256 20 34.0744 20 36.6163V63.6191C20 66.161 21.3561 68.5098 23.5574 69.7808L46.9426 83.2822C49.1439 84.5531 51.8561 84.5531 54.0574 83.2822L77.4426 69.7808C79.6439 68.5098 81 66.161 81 63.6191V36.6163C81 34.0744 79.6439 31.7256 77.4426 30.4546L54.0574 16.9532Z" fill="#0D7EE7"/>
<path d="M46.9638 34.7403C49.1651 33.4693 51.8773 33.4693 54.0786 34.7403L62.0782 39.3588C64.2796 40.6298 65.6356 42.9786 65.6356 45.5205V54.7576C65.6356 57.2995 64.2796 59.6483 62.0782 60.9192L54.0786 65.5378C51.8773 66.8088 49.1651 66.8088 46.9638 65.5378L38.9641 60.9192C36.7628 59.6483 35.4067 57.2995 35.4067 54.7576V45.5205C35.4067 42.9786 36.7628 40.6298 38.9641 39.3588L46.9638 34.7403Z" fill="white" fill-opacity="0.4"/>
<path fill-rule="evenodd" clip-rule="evenodd" d="M60.2995 42.4397L52.2999 37.8211C51.1992 37.1856 49.8431 37.1856 48.7425 37.8211L40.7429 42.4396C39.6422 43.0751 38.9641 44.2495 38.9641 45.5205V54.7576C38.9641 56.0286 39.6422 57.203 40.7429 57.8384L48.7425 62.457C49.8431 63.0925 51.1992 63.0925 52.2999 62.457L60.2995 57.8384C61.4002 57.203 62.0782 56.0286 62.0782 54.7576V45.5205C62.0782 44.2495 61.4002 43.0751 60.2995 42.4397ZM54.0786 34.7403C51.8773 33.4693 49.1651 33.4693 46.9638 34.7403L38.9641 39.3588C36.7628 40.6298 35.4067 42.9786 35.4067 45.5205V54.7576C35.4067 57.2995 36.7628 59.6483 38.9641 60.9192L46.9638 65.5378C49.1651 66.8088 51.8773 66.8088 54.0786 65.5378L62.0782 60.9192C64.2796 59.6483 65.6356 57.2995 65.6356 54.7576V45.5205C65.6356 42.9786 64.2796 40.6298 62.0782 39.3588L54.0786 34.7403Z" fill="white"/>
</svg>
