<svg width="61" height="69" viewBox="0 0 61 69" fill="none" xmlns="http://www.w3.org/2000/svg">
<path d="M26.9426 0.953205C29.1439 -0.317735 31.8561 -0.317735 34.0574 0.953206L57.4426 14.4546C59.6439 15.7256 61 18.0744 61 20.6163V47.6191C61 50.161 59.6439 52.5098 57.4426 53.7808L34.0574 67.2822C31.8561 68.5531 29.1439 68.5531 26.9426 67.2822L3.55741 53.7808C1.35608 52.5098 0 50.161 0 47.6191V20.6163C0 18.0744 1.35608 15.7256 3.55741 14.4546L26.9426 0.953205Z" fill="#0D7EE7"/>
<path fill-rule="evenodd" clip-rule="evenodd" d="M55.6639 17.5355L32.2787 4.03401C31.178 3.39854 29.822 3.39854 28.7213 4.03401L5.33612 17.5355C4.23545 18.1709 3.55741 19.3453 3.55741 20.6163V47.6191C3.55741 48.8901 4.23545 50.0645 5.33612 50.7L28.7213 64.2014C29.822 64.8369 31.178 64.8369 32.2787 64.2014L55.6639 50.7C56.7645 50.0645 57.4426 48.8901 57.4426 47.6191V20.6163C57.4426 19.3453 56.7645 18.1709 55.6639 17.5355ZM34.0574 0.953206C31.8561 -0.317735 29.1439 -0.317735 26.9426 0.953205L3.55741 14.4546C1.35608 15.7256 0 18.0744 0 20.6163V47.6191C0 50.161 1.35608 52.5098 3.55741 53.7808L26.9426 67.2822C29.1439 68.5531 31.8561 68.5531 34.0574 67.2822L57.4426 53.7808C59.6439 52.5098 61 50.161 61 47.6191V20.6163C61 18.0744 59.6439 15.7256 57.4426 14.4546L34.0574 0.953206Z" fill="#0D7EE7"/>
<path d="M26.9638 18.7403C29.1651 17.4693 31.8773 17.4693 34.0786 18.7403L42.0782 23.3588C44.2796 24.6298 45.6356 26.9786 45.6356 29.5205V38.7576C45.6356 41.2995 44.2796 43.6483 42.0782 44.9192L34.0786 49.5378C31.8773 50.8088 29.1651 50.8088 26.9638 49.5378L18.9641 44.9192C16.7628 43.6483 15.4067 41.2995 15.4067 38.7576V29.5205C15.4067 26.9786 16.7628 24.6298 18.9641 23.3588L26.9638 18.7403Z" fill="white" fill-opacity="0.4"/>
<path fill-rule="evenodd" clip-rule="evenodd" d="M40.2995 26.4397L32.2999 21.8211C31.1992 21.1856 29.8431 21.1856 28.7425 21.8211L20.7429 26.4396C19.6422 27.0751 18.9641 28.2495 18.9641 29.5205V38.7576C18.9641 40.0286 19.6422 41.203 20.7429 41.8384L28.7425 46.457C29.8431 47.0925 31.1992 47.0925 32.2999 46.457L40.2995 41.8384C41.4002 41.203 42.0782 40.0286 42.0782 38.7576V29.5205C42.0782 28.2495 41.4002 27.0751 40.2995 26.4397ZM34.0786 18.7403C31.8773 17.4693 29.1651 17.4693 26.9638 18.7403L18.9641 23.3588C16.7628 24.6298 15.4067 26.9786 15.4067 29.5205V38.7576C15.4067 41.2995 16.7628 43.6483 18.9641 44.9192L26.9638 49.5378C29.1651 50.8088 31.8773 50.8088 34.0786 49.5378L42.0782 44.9192C44.2796 43.6483 45.6356 41.2995 45.6356 38.7576V29.5205C45.6356 26.9786 44.2796 24.6298 42.0782 23.3588L34.0786 18.7403Z" fill="white"/>
</svg>
