<svg width="200" height="38" viewBox="0 0 200 38" fill="none" xmlns="http://www.w3.org/2000/svg">
<path d="M53.0313 29.0233C50.9652 29.0233 49.1903 28.61 47.7066 27.7836C46.2416 26.9384 45.1146 25.7552 44.3258 24.2338C43.5369 22.6937 43.1425 20.8812 43.1425 18.7964C43.1425 17.2375 43.3679 15.8382 43.8187 14.5986C44.2694 13.3402 44.9174 12.2696 45.7626 11.3869C46.6078 10.4853 47.6408 9.7998 48.8617 9.33025C50.1013 8.84192 51.4911 8.59775 53.0313 8.59775C54.0643 8.59775 55.0785 8.72922 56.074 8.99217C57.0694 9.25512 57.9428 9.63076 58.6941 10.1191C59.0885 10.3633 59.3514 10.6638 59.4829 11.0206C59.6144 11.3587 59.6426 11.6968 59.5674 12.0349C59.4923 12.3542 59.3327 12.6265 59.0885 12.8519C58.8631 13.0773 58.572 13.2087 58.2151 13.2463C57.8771 13.2651 57.5014 13.143 57.0882 12.8801C56.506 12.5044 55.8768 12.2321 55.2006 12.063C54.5245 11.894 53.8389 11.8095 53.144 11.8095C51.8104 11.8095 50.6835 12.0818 49.7632 12.6265C48.8429 13.1712 48.1479 13.96 47.6784 14.993C47.2088 16.0261 46.9741 17.2938 46.9741 18.7964C46.9741 20.2802 47.2088 21.548 47.6784 22.5998C48.1479 23.6516 48.8429 24.4498 49.7632 24.9945C50.6835 25.5392 51.8104 25.8115 53.144 25.8115C53.8577 25.8115 54.562 25.727 55.257 25.558C55.9519 25.3701 56.6093 25.0884 57.2291 24.7128C57.6423 24.4686 58.0085 24.3653 58.3278 24.4029C58.6659 24.4216 58.9476 24.5343 59.173 24.7409C59.3984 24.9475 59.5487 25.2105 59.6238 25.5298C59.6989 25.8303 59.6801 26.1496 59.5674 26.4877C59.4547 26.807 59.2294 27.0887 58.8913 27.3329C58.14 27.8775 57.2385 28.3001 56.1867 28.6007C55.1537 28.8824 54.1019 29.0233 53.0313 29.0233Z" fill="#0D7EE7"/>
<path d="M64.3481 28.9669C63.7846 28.9669 63.3526 28.8166 63.0521 28.5161C62.7516 28.1968 62.6013 27.7461 62.6013 27.1638V10.429C62.6013 9.84676 62.7516 9.40538 63.0521 9.10487C63.3526 8.80435 63.7846 8.65409 64.3481 8.65409C64.9115 8.65409 65.3435 8.80435 65.644 9.10487C65.9633 9.40538 66.123 9.84676 66.123 10.429V17.7258H65.7285C66.1417 16.7304 66.7803 15.9791 67.6443 15.472C68.5271 14.9461 69.5225 14.6831 70.6307 14.6831C71.7388 14.6831 72.6497 14.8897 73.3635 15.3029C74.0772 15.7162 74.6125 16.3454 74.9693 17.1905C75.3262 18.017 75.5046 19.0688 75.5046 20.3459V27.1638C75.5046 27.7461 75.3544 28.1968 75.0538 28.5161C74.7533 28.8166 74.3213 28.9669 73.7579 28.9669C73.1944 28.9669 72.753 28.8166 72.4337 28.5161C72.1332 28.1968 71.983 27.7461 71.983 27.1638V20.515C71.983 19.4444 71.7764 18.6649 71.3632 18.1766C70.9687 17.6883 70.3489 17.4441 69.5037 17.4441C68.4707 17.4441 67.6443 17.7728 67.0245 18.4302C66.4235 19.0688 66.123 19.9233 66.123 20.9939V27.1638C66.123 28.3659 65.5313 28.9669 64.3481 28.9669Z" fill="#0D7EE7"/>
<path d="M83.6174 29.0233C82.6219 29.0233 81.7298 28.8354 80.9409 28.4598C80.1709 28.0654 79.5604 27.5395 79.1097 26.8821C78.6777 26.2247 78.4617 25.4828 78.4617 24.6564C78.4617 23.6422 78.7246 22.8439 79.2505 22.2617C79.7764 21.6607 80.631 21.2287 81.8143 20.9657C82.9976 20.7028 84.5846 20.5713 86.5755 20.5713H87.9842V22.5998H86.6037C85.4392 22.5998 84.5095 22.6561 83.8146 22.7688C83.1196 22.8815 82.6219 23.0787 82.3214 23.3605C82.0397 23.6234 81.8988 23.999 81.8988 24.4874C81.8988 25.1072 82.1148 25.6143 82.5468 26.0087C82.9788 26.4032 83.5798 26.6004 84.3499 26.6004C84.9697 26.6004 85.5144 26.4595 85.9839 26.1778C86.4722 25.8773 86.8573 25.4734 87.139 24.9663C87.4207 24.4592 87.5616 23.877 87.5616 23.2196V19.9797C87.5616 19.0406 87.355 18.3644 86.9418 17.9512C86.5286 17.538 85.8336 17.3314 84.857 17.3314C84.3123 17.3314 83.7207 17.3971 83.0821 17.5286C82.4623 17.6601 81.8049 17.8855 81.11 18.2048C80.7531 18.3738 80.4338 18.4208 80.1521 18.3456C79.8891 18.2705 79.6825 18.1203 79.5323 17.8949C79.382 17.6507 79.3069 17.3878 79.3069 17.106C79.3069 16.8243 79.382 16.552 79.5323 16.289C79.6825 16.0073 79.9361 15.8007 80.2929 15.6692C81.1569 15.3123 81.9833 15.0588 82.7722 14.9085C83.5798 14.7583 84.3123 14.6831 84.9697 14.6831C86.322 14.6831 87.4301 14.8897 88.2941 15.3029C89.1769 15.7162 89.8342 16.3454 90.2662 17.1905C90.6982 18.017 90.9142 19.0875 90.9142 20.4023V27.1638C90.9142 27.7461 90.7733 28.1968 90.4916 28.5161C90.2099 28.8166 89.8061 28.9669 89.2802 28.9669C88.7543 28.9669 88.3411 28.8166 88.0405 28.5161C87.7588 28.1968 87.6179 27.7461 87.6179 27.1638V25.8115H87.8433C87.7119 26.4689 87.4489 27.0417 87.0545 27.5301C86.6788 27.9996 86.1999 28.3659 85.6177 28.6288C85.0354 28.8918 84.3686 29.0233 83.6174 29.0233Z" fill="#0D7EE7"/>
<path d="M96.2354 28.9387C95.6719 28.9387 95.2399 28.7697 94.9394 28.4316C94.6389 28.0935 94.4887 27.624 94.4887 27.023V16.6834C94.4887 16.0636 94.6389 15.5941 94.9394 15.2748C95.2399 14.9367 95.6719 14.7677 96.2354 14.7677C96.7989 14.7677 97.2308 14.9367 97.5314 15.2748C97.8506 15.5941 98.0103 16.0636 98.0103 16.6834V27.023C98.0103 27.624 97.86 28.0935 97.5595 28.4316C97.259 28.7697 96.8176 28.9387 96.2354 28.9387ZM96.2354 12.1476C95.578 12.1476 95.0615 11.9879 94.6859 11.6686C94.329 11.3305 94.1506 10.8704 94.1506 10.2881C94.1506 9.68711 94.329 9.22695 94.6859 8.90765C95.0615 8.58836 95.578 8.42871 96.2354 8.42871C96.9115 8.42871 97.4281 8.58836 97.7849 8.90765C98.1418 9.22695 98.3202 9.68711 98.3202 10.2881C98.3202 10.8704 98.1418 11.3305 97.7849 11.6686C97.4281 11.9879 96.9115 12.1476 96.2354 12.1476Z" fill="#0D7EE7"/>
<path d="M103.416 28.9669C102.853 28.9669 102.421 28.8166 102.12 28.5161C101.82 28.1968 101.67 27.7461 101.67 27.1638V16.5144C101.67 15.9321 101.82 15.4908 102.12 15.1903C102.421 14.8897 102.843 14.7395 103.388 14.7395C103.933 14.7395 104.355 14.8897 104.656 15.1903C104.956 15.4908 105.107 15.9321 105.107 16.5144V18.4302L104.797 17.7258C105.21 16.7304 105.849 15.9791 106.712 15.472C107.595 14.9461 108.591 14.6831 109.699 14.6831C110.807 14.6831 111.718 14.8897 112.432 15.3029C113.145 15.7162 113.681 16.3454 114.037 17.1905C114.394 18.017 114.573 19.0688 114.573 20.3459V27.1638C114.573 27.7461 114.423 28.1968 114.122 28.5161C113.821 28.8166 113.39 28.9669 112.826 28.9669C112.263 28.9669 111.821 28.8166 111.502 28.5161C111.201 28.1968 111.051 27.7461 111.051 27.1638V20.515C111.051 19.4444 110.845 18.6649 110.431 18.1766C110.037 17.6883 109.417 17.4441 108.572 17.4441C107.539 17.4441 106.712 17.7728 106.093 18.4302C105.492 19.0688 105.191 19.9233 105.191 20.9939V27.1638C105.191 28.3659 104.6 28.9669 103.416 28.9669Z" fill="#0D7EE7"/>
<path d="M120.347 28.9669C119.765 28.9669 119.305 28.8073 118.967 28.488C118.647 28.1499 118.488 27.6709 118.488 27.0511V10.7953C118.488 10.1754 118.647 9.70589 118.967 9.3866C119.305 9.04852 119.784 8.87948 120.404 8.87948H130.236C130.724 8.87948 131.091 9.00156 131.335 9.24573C131.579 9.4899 131.701 9.83737 131.701 10.2881C131.701 10.7577 131.579 11.1239 131.335 11.3869C131.091 11.6311 130.724 11.7531 130.236 11.7531H122.094V17.3596H129.644C130.114 17.3596 130.471 17.4817 130.715 17.7258C130.978 17.97 131.109 18.3175 131.109 18.7682C131.109 19.2378 130.978 19.604 130.715 19.867C130.471 20.1112 130.114 20.2332 129.644 20.2332H122.094V27.0511C122.094 28.3283 121.512 28.9669 120.347 28.9669Z" fill="#0D7EE7"/>
<path d="M138.598 29.0233C137.453 29.0233 136.504 28.8166 135.753 28.4034C135.002 27.9715 134.438 27.3329 134.063 26.4877C133.706 25.6425 133.527 24.5907 133.527 23.3323V16.5144C133.527 15.9134 133.678 15.472 133.978 15.1903C134.279 14.8897 134.711 14.7395 135.274 14.7395C135.838 14.7395 136.27 14.8897 136.57 15.1903C136.889 15.472 137.049 15.9134 137.049 16.5144V23.3886C137.049 24.3653 137.246 25.0884 137.641 25.558C138.035 26.0275 138.664 26.2623 139.528 26.2623C140.467 26.2623 141.237 25.943 141.838 25.3044C142.439 24.647 142.74 23.7831 142.74 22.7125V16.5144C142.74 15.9134 142.89 15.472 143.191 15.1903C143.491 14.8897 143.923 14.7395 144.487 14.7395C145.05 14.7395 145.482 14.8897 145.783 15.1903C146.102 15.472 146.262 15.9134 146.262 16.5144V27.1638C146.262 28.3659 145.689 28.9669 144.543 28.9669C143.998 28.9669 143.576 28.8166 143.275 28.5161C142.975 28.1968 142.824 27.7461 142.824 27.1638V25.0227L143.219 25.8679C142.824 26.8821 142.223 27.6616 141.416 28.2062C140.627 28.7509 139.688 29.0233 138.598 29.0233Z" fill="#0D7EE7"/>
<path d="M154.97 29.0233C154.162 29.0233 153.308 28.9387 152.406 28.7697C151.505 28.6007 150.697 28.3095 149.983 27.8963C149.683 27.7085 149.467 27.4925 149.335 27.2483C149.223 26.9854 149.176 26.7318 149.194 26.4877C149.232 26.2247 149.326 25.9993 149.476 25.8115C149.645 25.6237 149.852 25.5016 150.096 25.4453C150.359 25.3889 150.641 25.4359 150.941 25.5861C151.692 25.943 152.397 26.1966 153.054 26.3468C153.712 26.4783 154.36 26.544 154.998 26.544C155.9 26.544 156.566 26.3938 156.998 26.0932C157.449 25.774 157.675 25.3607 157.675 24.8536C157.675 24.4216 157.524 24.093 157.224 23.8676C156.942 23.6234 156.51 23.445 155.928 23.3323L153.111 22.797C151.946 22.5716 151.054 22.149 150.434 21.5292C149.833 20.8906 149.533 20.0736 149.533 19.0781C149.533 18.1766 149.777 17.3971 150.265 16.7398C150.772 16.0824 151.467 15.5753 152.35 15.2184C153.233 14.8616 154.247 14.6831 155.393 14.6831C156.219 14.6831 156.989 14.7771 157.703 14.9649C158.435 15.1339 159.14 15.4062 159.816 15.7819C160.097 15.9321 160.285 16.1294 160.379 16.3735C160.492 16.6177 160.52 16.8713 160.464 17.1342C160.407 17.3784 160.295 17.6038 160.126 17.8104C159.957 17.9982 159.741 18.1203 159.478 18.1766C159.233 18.2142 158.952 18.1578 158.632 18.0076C158.05 17.7071 157.487 17.4911 156.942 17.3596C156.416 17.2281 155.909 17.1624 155.421 17.1624C154.5 17.1624 153.815 17.322 153.364 17.6413C152.932 17.9606 152.716 18.3832 152.716 18.9091C152.716 19.3035 152.848 19.6322 153.111 19.8952C153.373 20.1581 153.777 20.3365 154.322 20.4305L157.139 20.9657C158.36 21.1911 159.28 21.6043 159.9 22.2054C160.539 22.8064 160.858 23.614 160.858 24.6282C160.858 25.9993 160.323 27.0793 159.252 27.8682C158.182 28.6382 156.754 29.0233 154.97 29.0233Z" fill="#0D7EE7"/>
<path d="M165.43 28.9387C164.867 28.9387 164.435 28.7697 164.134 28.4316C163.834 28.0935 163.683 27.624 163.683 27.023V16.6834C163.683 16.0636 163.834 15.5941 164.134 15.2748C164.435 14.9367 164.867 14.7677 165.43 14.7677C165.994 14.7677 166.426 14.9367 166.726 15.2748C167.045 15.5941 167.205 16.0636 167.205 16.6834V27.023C167.205 27.624 167.055 28.0935 166.754 28.4316C166.454 28.7697 166.012 28.9387 165.43 28.9387ZM165.43 12.1476C164.773 12.1476 164.256 11.9879 163.881 11.6686C163.524 11.3305 163.345 10.8704 163.345 10.2881C163.345 9.68711 163.524 9.22695 163.881 8.90765C164.256 8.58836 164.773 8.42871 165.43 8.42871C166.106 8.42871 166.623 8.58836 166.98 8.90765C167.336 9.22695 167.515 9.68711 167.515 10.2881C167.515 10.8704 167.336 11.3305 166.98 11.6686C166.623 11.9879 166.106 12.1476 165.43 12.1476Z" fill="#0D7EE7"/>
<path d="M177.147 29.0233C175.719 29.0233 174.48 28.7321 173.428 28.1499C172.376 27.5676 171.559 26.7412 170.977 25.6707C170.395 24.5813 170.104 23.3041 170.104 21.8391C170.104 20.731 170.263 19.7449 170.582 18.8809C170.921 17.9982 171.399 17.2469 172.019 16.6271C172.639 15.9885 173.381 15.5096 174.245 15.1903C175.109 14.8522 176.076 14.6831 177.147 14.6831C178.574 14.6831 179.814 14.9743 180.866 15.5565C181.917 16.1388 182.734 16.9652 183.317 18.0357C183.899 19.1063 184.19 20.3741 184.19 21.8391C184.19 22.9473 184.021 23.9427 183.683 24.8255C183.364 25.7082 182.894 26.4689 182.274 27.1075C181.654 27.7273 180.913 28.2062 180.049 28.5443C179.185 28.8636 178.217 29.0233 177.147 29.0233ZM177.147 26.3468C177.842 26.3468 178.452 26.1778 178.978 25.8397C179.504 25.5016 179.908 25.0039 180.189 24.3465C180.49 23.6704 180.64 22.8346 180.64 21.8391C180.64 20.3365 180.321 19.219 179.682 18.4865C179.044 17.7352 178.199 17.3596 177.147 17.3596C176.452 17.3596 175.841 17.5286 175.316 17.8667C174.79 18.186 174.376 18.6837 174.076 19.3599C173.794 20.0172 173.653 20.8437 173.653 21.8391C173.653 23.3229 173.973 24.4498 174.611 25.2199C175.25 25.9712 176.095 26.3468 177.147 26.3468Z" fill="#0D7EE7"/>
<path d="M188.843 28.9669C188.28 28.9669 187.848 28.8166 187.548 28.5161C187.247 28.1968 187.097 27.7461 187.097 27.1638V16.5144C187.097 15.9321 187.247 15.4908 187.548 15.1903C187.848 14.8897 188.271 14.7395 188.815 14.7395C189.36 14.7395 189.783 14.8897 190.083 15.1903C190.384 15.4908 190.534 15.9321 190.534 16.5144V18.4302L190.224 17.7258C190.637 16.7304 191.276 15.9791 192.14 15.472C193.022 14.9461 194.018 14.6831 195.126 14.6831C196.234 14.6831 197.145 14.8897 197.859 15.3029C198.573 15.7162 199.108 16.3454 199.465 17.1905C199.822 18.017 200 19.0688 200 20.3459V27.1638C200 27.7461 199.85 28.1968 199.549 28.5161C199.249 28.8166 198.817 28.9669 198.253 28.9669C197.69 28.9669 197.248 28.8166 196.929 28.5161C196.629 28.1968 196.478 27.7461 196.478 27.1638V20.515C196.478 19.4444 196.272 18.6649 195.859 18.1766C195.464 17.6883 194.844 17.4441 193.999 17.4441C192.966 17.4441 192.14 17.7728 191.52 18.4302C190.919 19.0688 190.618 19.9233 190.618 20.9939V27.1638C190.618 28.3659 190.027 28.9669 188.843 28.9669Z" fill="#0D7EE7"/>
<path d="M14.8176 0.524233C16.0283 -0.174745 17.5199 -0.174744 18.7305 0.524234L31.5916 7.94961C32.8023 8.64858 33.5481 9.94035 33.5481 11.3383V26.189C33.5481 27.587 32.8023 28.8788 31.5916 29.5777L18.7305 37.0031C17.5199 37.7021 16.0283 37.7021 14.8176 37.0031L1.95647 29.5777C0.7458 28.8788 0 27.587 0 26.189V11.3383C0 9.94035 0.7458 8.64858 1.95647 7.94961L14.8176 0.524233Z" fill="#0D7EE7"/>
<path fill-rule="evenodd" clip-rule="evenodd" d="M30.6134 9.64395L17.7523 2.21858C17.147 1.86909 16.4012 1.86909 15.7958 2.21858L2.9347 9.64395C2.32937 9.99344 1.95647 10.6393 1.95647 11.3383V26.189C1.95647 26.888 2.32937 27.5339 2.9347 27.8834L15.7958 35.3088C16.4012 35.6583 17.147 35.6583 17.7523 35.3088L30.6134 27.8834C31.2187 27.5339 31.5916 26.888 31.5916 26.189V11.3383C31.5916 10.6393 31.2187 9.99344 30.6134 9.64395ZM18.7305 0.524233C17.5199 -0.174744 16.0283 -0.174745 14.8176 0.524233L1.95647 7.94961C0.7458 8.64858 0 9.94035 0 11.3383V26.189C0 27.587 0.7458 28.8788 1.95647 29.5777L14.8176 37.0031C16.0283 37.7021 17.5199 37.7021 18.7305 37.0031L31.5916 29.5777C32.8023 28.8788 33.5481 27.587 33.5481 26.189V11.3383C33.5481 9.94035 32.8023 8.64858 31.5916 7.94961L18.7305 0.524233Z" fill="#0D7EE7"/>
<path d="M14.8293 10.3066C16.0399 9.6076 17.5315 9.6076 18.7422 10.3066L23.1418 12.8467C24.3524 13.5456 25.0982 14.8374 25.0982 16.2354V21.3155C25.0982 22.7135 24.3524 24.0052 23.1418 24.7042L18.7422 27.2443C17.5315 27.9433 16.0399 27.9433 14.8293 27.2443L10.4297 24.7042C9.21906 24.0052 8.47327 22.7135 8.47327 21.3155V16.2354C8.47327 14.8374 9.21907 13.5456 10.4297 12.8467L14.8293 10.3066Z" fill="white" fill-opacity="0.4"/>
<path fill-rule="evenodd" clip-rule="evenodd" d="M22.1635 14.541L17.764 12.0009C17.1586 11.6514 16.4128 11.6514 15.8075 12.0009L11.408 14.541C10.8026 14.8905 10.4297 15.5364 10.4297 16.2354V21.3155C10.4297 22.0145 10.8026 22.6604 11.408 23.0099L15.8075 25.5499C16.4128 25.8994 17.1586 25.8994 17.764 25.5499L22.1635 23.0099C22.7689 22.6604 23.1418 22.0145 23.1418 21.3155V16.2354C23.1418 15.5364 22.7689 14.8905 22.1635 14.541ZM18.7422 10.3066C17.5315 9.6076 16.0399 9.6076 14.8293 10.3066L10.4297 12.8467C9.21907 13.5456 8.47327 14.8374 8.47327 16.2354V21.3155C8.47327 22.7135 9.21906 24.0052 10.4297 24.7042L14.8293 27.2443C16.0399 27.9433 17.5315 27.9433 18.7422 27.2443L23.1418 24.7042C24.3524 24.0052 25.0982 22.7135 25.0982 21.3155V16.2354C25.0982 14.8374 24.3524 13.5456 23.1418 12.8467L18.7422 10.3066Z" fill="white"/>
</svg>
