<svg width="200" height="38" viewBox="0 0 200 38" fill="none" xmlns="http://www.w3.org/2000/svg">
<path d="M53.0225 28.9774C50.9564 28.9774 49.1814 28.5642 47.6975 27.7378C46.2324 26.8926 45.1054 25.7093 44.3165 24.1879C43.5276 22.6478 43.1332 20.8353 43.1332 18.7504C43.1332 17.1915 43.3586 15.7922 43.8094 14.5526C44.2602 13.2941 44.9082 12.2236 45.7534 11.3408C46.5987 10.4392 47.6318 9.75368 48.8527 9.28412C50.0924 8.79578 51.4823 8.55161 53.0225 8.55161C54.0556 8.55161 55.0699 8.68309 56.0654 8.94604C57.0609 9.20899 57.9343 9.58464 58.6857 10.073C59.0801 10.3171 59.3431 10.6177 59.4746 10.9745C59.606 11.3126 59.6342 11.6507 59.5591 11.9888C59.4839 12.3081 59.3243 12.5804 59.0801 12.8058C58.8547 13.0312 58.5636 13.1627 58.2067 13.2002C57.8686 13.219 57.4929 13.0969 57.0797 12.834C56.4974 12.4583 55.8682 12.186 55.192 12.0169C54.5158 11.8479 53.8302 11.7634 53.1352 11.7634C51.8016 11.7634 50.6746 12.0357 49.7543 12.5804C48.8339 13.1251 48.1389 13.914 47.6693 14.947C47.1997 15.98 46.9649 17.2478 46.9649 18.7504C46.9649 20.2342 47.1997 21.502 47.6693 22.5538C48.1389 23.6056 48.8339 24.4039 49.7543 24.9486C50.6746 25.4933 51.8016 25.7656 53.1352 25.7656C53.849 25.7656 54.5534 25.6811 55.2483 25.5121C55.9433 25.3242 56.6007 25.0425 57.2206 24.6669C57.6338 24.4227 58.0001 24.3194 58.3194 24.3569C58.6575 24.3757 58.9392 24.4884 59.1646 24.695C59.39 24.9016 59.5403 25.1646 59.6154 25.4839C59.6906 25.7844 59.6718 26.1037 59.5591 26.4418C59.4464 26.7611 59.221 27.0428 58.8829 27.287C58.1316 27.8317 57.23 28.2543 56.1781 28.5548C55.145 28.8365 54.0932 28.9774 53.0225 28.9774Z" fill="white"/>
<path d="M64.34 28.921C63.7765 28.921 63.3445 28.7708 63.0439 28.4703C62.7434 28.151 62.5931 27.7002 62.5931 27.1179V10.3829C62.5931 9.80063 62.7434 9.35925 63.0439 9.05873C63.3445 8.75821 63.7765 8.60796 64.34 8.60796C64.9035 8.60796 65.3355 8.75821 65.636 9.05873C65.9553 9.35925 66.115 9.80063 66.115 10.3829V17.6798H65.7205C66.1338 16.6844 66.7724 15.9331 67.6364 15.4259C68.5192 14.9 69.5148 14.6371 70.623 14.6371C71.7312 14.6371 72.6422 14.8437 73.3559 15.2569C74.0697 15.6701 74.605 16.2993 74.9619 17.1445C75.3188 17.9709 75.4972 19.0228 75.4972 20.3V27.1179C75.4972 27.7002 75.3469 28.151 75.0464 28.4703C74.7459 28.7708 74.3139 28.921 73.7504 28.921C73.1869 28.921 72.7455 28.7708 72.4261 28.4703C72.1256 28.151 71.9754 27.7002 71.9754 27.1179V20.469C71.9754 19.3984 71.7687 18.6189 71.3555 18.1306C70.9611 17.6423 70.3412 17.3981 69.496 17.3981C68.4629 17.3981 67.6364 17.7268 67.0166 18.3842C66.4155 19.0228 66.115 19.8774 66.115 20.948V27.1179C66.115 28.32 65.5233 28.921 64.34 28.921Z" fill="white"/>
<path d="M83.6104 28.9774C82.6149 28.9774 81.7227 28.7896 80.9338 28.4139C80.1637 28.0195 79.5533 27.4936 79.1025 26.8362C78.6705 26.1788 78.4544 25.4369 78.4544 24.6105C78.4544 23.5963 78.7174 22.798 79.2433 22.2158C79.7693 21.6147 80.6239 21.1827 81.8073 20.9198C82.9906 20.6568 84.5778 20.5253 86.5688 20.5253H87.9775V22.5538H86.597C85.4324 22.5538 84.5026 22.6102 83.8077 22.7229C83.1127 22.8356 82.6149 23.0328 82.3144 23.3145C82.0326 23.5775 81.8918 23.9531 81.8918 24.4415C81.8918 25.0613 82.1078 25.5684 82.5398 25.9628C82.9718 26.3573 83.5729 26.5545 84.343 26.5545C84.9628 26.5545 85.5075 26.4136 85.9771 26.1319C86.4655 25.8314 86.8505 25.4275 87.1323 24.9204C87.414 24.4133 87.5549 23.831 87.5549 23.1737V19.9337C87.5549 18.9946 87.3483 18.3184 86.9351 17.9052C86.5218 17.492 85.8269 17.2854 84.8501 17.2854C84.3054 17.2854 83.7137 17.3511 83.0751 17.4826C82.4553 17.6141 81.7979 17.8395 81.1029 18.1588C80.746 18.3278 80.4267 18.3748 80.1449 18.2996C79.882 18.2245 79.6754 18.0743 79.5251 17.8489C79.3748 17.6047 79.2997 17.3417 79.2997 17.06C79.2997 16.7783 79.3748 16.5059 79.5251 16.243C79.6754 15.9612 79.9289 15.7546 80.2858 15.6232C81.1498 15.2663 81.9763 15.0127 82.7652 14.8625C83.5729 14.7122 84.3054 14.6371 84.9628 14.6371C86.3152 14.6371 87.4234 14.8437 88.2874 15.2569C89.1703 15.6701 89.8277 16.2993 90.2597 17.1445C90.6917 17.9709 90.9077 19.0415 90.9077 20.3563V27.1179C90.9077 27.7002 90.7668 28.151 90.4851 28.4703C90.2033 28.7708 89.7995 28.921 89.2736 28.921C88.7476 28.921 88.3344 28.7708 88.0339 28.4703C87.7521 28.151 87.6113 27.7002 87.6113 27.1179V25.7656H87.8367C87.7052 26.423 87.4422 26.9959 87.0478 27.4842C86.6721 27.9538 86.1931 28.32 85.6108 28.583C85.0286 28.8459 84.3618 28.9774 83.6104 28.9774Z" fill="white"/>
<path d="M96.2292 28.8929C95.6657 28.8929 95.2337 28.7238 94.9332 28.3858C94.6326 28.0477 94.4824 27.5781 94.4824 26.9771V16.6374C94.4824 16.0176 94.6326 15.548 94.9332 15.2287C95.2337 14.8906 95.6657 14.7216 96.2292 14.7216C96.7927 14.7216 97.2247 14.8906 97.5253 15.2287C97.8446 15.548 98.0042 16.0176 98.0042 16.6374V26.9771C98.0042 27.5781 97.854 28.0477 97.5534 28.3858C97.2529 28.7238 96.8115 28.8929 96.2292 28.8929ZM96.2292 12.1015C95.5718 12.1015 95.0553 11.9418 94.6796 11.6225C94.3227 11.2844 94.1443 10.8243 94.1443 10.242C94.1443 9.64098 94.3227 9.18082 94.6796 8.86152C95.0553 8.54222 95.5718 8.38257 96.2292 8.38257C96.9054 8.38257 97.4219 8.54222 97.7788 8.86152C98.1357 9.18082 98.3141 9.64098 98.3141 10.242C98.3141 10.8243 98.1357 11.2844 97.7788 11.6225C97.4219 11.9418 96.9054 12.1015 96.2292 12.1015Z" fill="white"/>
<path d="M103.41 28.921C102.847 28.921 102.415 28.7708 102.114 28.4703C101.814 28.151 101.664 27.7002 101.664 27.1179V16.4684C101.664 15.8861 101.814 15.4447 102.114 15.1442C102.415 14.8437 102.838 14.6934 103.382 14.6934C103.927 14.6934 104.35 14.8437 104.65 15.1442C104.951 15.4447 105.101 15.8861 105.101 16.4684V18.3842L104.791 17.6798C105.204 16.6844 105.843 15.9331 106.707 15.4259C107.59 14.9 108.585 14.6371 109.693 14.6371C110.802 14.6371 111.713 14.8437 112.426 15.2569C113.14 15.6701 113.675 16.2993 114.032 17.1445C114.389 17.9709 114.568 19.0228 114.568 20.3V27.1179C114.568 27.7002 114.417 28.151 114.117 28.4703C113.816 28.7708 113.384 28.921 112.821 28.921C112.257 28.921 111.816 28.7708 111.497 28.4703C111.196 28.151 111.046 27.7002 111.046 27.1179V20.469C111.046 19.3984 110.839 18.6189 110.426 18.1306C110.032 17.6423 109.412 17.3981 108.566 17.3981C107.533 17.3981 106.707 17.7268 106.087 18.3842C105.486 19.0228 105.185 19.8774 105.185 20.948V27.1179C105.185 28.32 104.594 28.921 103.41 28.921Z" fill="white"/>
<path d="M120.342 28.921C119.76 28.921 119.3 28.7614 118.962 28.4421C118.643 28.104 118.483 27.6251 118.483 27.0053V10.7491C118.483 10.1293 118.643 9.65977 118.962 9.34047C119.3 9.00238 119.779 8.83334 120.399 8.83334H130.232C130.72 8.83334 131.086 8.95543 131.331 9.1996C131.575 9.44377 131.697 9.79124 131.697 10.242C131.697 10.7116 131.575 11.0778 131.331 11.3408C131.086 11.585 130.72 11.707 130.232 11.707H122.089V17.3136H129.64C130.11 17.3136 130.467 17.4357 130.711 17.6798C130.974 17.924 131.105 18.2715 131.105 18.7222C131.105 19.1918 130.974 19.5581 130.711 19.821C130.467 20.0652 130.11 20.1873 129.64 20.1873H122.089V27.0053C122.089 28.2825 121.507 28.921 120.342 28.921Z" fill="white"/>
<path d="M138.595 28.9774C137.449 28.9774 136.501 28.7708 135.749 28.3576C134.998 27.9256 134.434 27.287 134.059 26.4418C133.702 25.5966 133.523 24.5448 133.523 23.2863V16.4684C133.523 15.8673 133.674 15.4259 133.974 15.1442C134.275 14.8437 134.707 14.6934 135.27 14.6934C135.834 14.6934 136.266 14.8437 136.566 15.1442C136.886 15.4259 137.045 15.8673 137.045 16.4684V23.3427C137.045 24.3194 137.242 25.0425 137.637 25.5121C138.031 25.9816 138.661 26.2164 139.525 26.2164C140.464 26.2164 141.234 25.8971 141.835 25.2585C142.436 24.6011 142.737 23.7371 142.737 22.6665V16.4684C142.737 15.8673 142.887 15.4259 143.187 15.1442C143.488 14.8437 143.92 14.6934 144.483 14.6934C145.047 14.6934 145.479 14.8437 145.779 15.1442C146.099 15.4259 146.258 15.8673 146.258 16.4684V27.1179C146.258 28.32 145.685 28.921 144.54 28.921C143.995 28.921 143.572 28.7708 143.272 28.4703C142.971 28.151 142.821 27.7002 142.821 27.1179V24.9768L143.216 25.822C142.821 26.8362 142.22 27.6157 141.412 28.1604C140.623 28.7051 139.684 28.9774 138.595 28.9774Z" fill="white"/>
<path d="M154.967 28.9774C154.16 28.9774 153.305 28.8929 152.403 28.7238C151.502 28.5548 150.694 28.2637 149.98 27.8505C149.68 27.6626 149.464 27.4466 149.332 27.2025C149.22 26.9395 149.173 26.686 149.191 26.4418C149.229 26.1788 149.323 25.9534 149.473 25.7656C149.642 25.5778 149.849 25.4557 150.093 25.3994C150.356 25.343 150.638 25.39 150.938 25.5402C151.69 25.8971 152.394 26.1507 153.051 26.3009C153.709 26.4324 154.357 26.4981 154.995 26.4981C155.897 26.4981 156.564 26.3479 156.996 26.0474C157.447 25.7281 157.672 25.3148 157.672 24.8077C157.672 24.3757 157.522 24.047 157.221 23.8216C156.939 23.5775 156.507 23.399 155.925 23.2863L153.108 22.7511C151.943 22.5257 151.051 22.1031 150.431 21.4832C149.83 20.8446 149.53 20.0276 149.53 19.0322C149.53 18.1306 149.774 17.3511 150.262 16.6937C150.769 16.0364 151.464 15.5292 152.347 15.1724C153.23 14.8155 154.244 14.6371 155.39 14.6371C156.216 14.6371 156.986 14.731 157.7 14.9188C158.433 15.0879 159.137 15.3602 159.813 15.7359C160.095 15.8861 160.283 16.0833 160.377 16.3275C160.49 16.5717 160.518 16.8252 160.461 17.0882C160.405 17.3323 160.292 17.5577 160.123 17.7643C159.954 17.9522 159.738 18.0743 159.475 18.1306C159.231 18.1682 158.949 18.1118 158.63 17.9616C158.048 17.661 157.484 17.445 156.939 17.3136C156.414 17.1821 155.906 17.1164 155.418 17.1164C154.498 17.1164 153.812 17.276 153.361 17.5953C152.929 17.9146 152.713 18.3372 152.713 18.8631C152.713 19.2575 152.845 19.5862 153.108 19.8492C153.371 20.1121 153.775 20.2906 154.319 20.3845L157.137 20.9198C158.358 21.1452 159.278 21.5584 159.898 22.1594C160.536 22.7604 160.856 23.5681 160.856 24.5823C160.856 25.9534 160.32 27.0334 159.25 27.8223C158.179 28.5924 156.752 28.9774 154.967 28.9774Z" fill="white"/>
<path d="M165.428 28.8929C164.865 28.8929 164.433 28.7238 164.132 28.3858C163.831 28.0477 163.681 27.5781 163.681 26.9771V16.6374C163.681 16.0176 163.831 15.548 164.132 15.2287C164.433 14.8906 164.865 14.7216 165.428 14.7216C165.992 14.7216 166.424 14.8906 166.724 15.2287C167.043 15.548 167.203 16.0176 167.203 16.6374V26.9771C167.203 27.5781 167.053 28.0477 166.752 28.3858C166.452 28.7238 166.01 28.8929 165.428 28.8929ZM165.428 12.1015C164.771 12.1015 164.254 11.9418 163.878 11.6225C163.522 11.2844 163.343 10.8243 163.343 10.242C163.343 9.64098 163.522 9.18082 163.878 8.86152C164.254 8.54222 164.771 8.38257 165.428 8.38257C166.104 8.38257 166.621 8.54222 166.978 8.86152C167.335 9.18082 167.513 9.64098 167.513 10.242C167.513 10.8243 167.335 11.2844 166.978 11.6225C166.621 11.9418 166.104 12.1015 165.428 12.1015Z" fill="white"/>
<path d="M177.145 28.9774C175.718 28.9774 174.478 28.6863 173.426 28.104C172.374 27.5218 171.557 26.6953 170.975 25.6248C170.393 24.5354 170.102 23.2582 170.102 21.7932C170.102 20.685 170.261 19.6989 170.581 18.8349C170.919 17.9522 171.398 17.2009 172.018 16.5811C172.637 15.9425 173.379 15.4635 174.243 15.1442C175.107 14.8061 176.075 14.6371 177.145 14.6371C178.573 14.6371 179.813 14.9282 180.865 15.5105C181.916 16.0927 182.733 16.9191 183.316 17.9897C183.898 19.0603 184.189 20.3281 184.189 21.7932C184.189 22.9013 184.02 23.8968 183.682 24.7795C183.363 25.6623 182.893 26.423 182.273 27.0616C181.653 27.6814 180.911 28.1604 180.047 28.4984C179.183 28.8177 178.216 28.9774 177.145 28.9774ZM177.145 26.3009C177.84 26.3009 178.451 26.1319 178.977 25.7938C179.503 25.4557 179.907 24.958 180.188 24.3006C180.489 23.6244 180.639 22.7886 180.639 21.7932C180.639 20.2906 180.32 19.173 179.681 18.4405C179.043 17.6892 178.197 17.3136 177.145 17.3136C176.45 17.3136 175.84 17.4826 175.314 17.8207C174.788 18.14 174.375 18.6377 174.074 19.3139C173.793 19.9713 173.652 20.7977 173.652 21.7932C173.652 23.277 173.971 24.4039 174.61 25.174C175.248 25.9253 176.094 26.3009 177.145 26.3009Z" fill="white"/>
<path d="M188.843 28.921C188.279 28.921 187.847 28.7708 187.547 28.4703C187.246 28.151 187.096 27.7002 187.096 27.1179V16.4684C187.096 15.8861 187.246 15.4447 187.547 15.1442C187.847 14.8437 188.27 14.6934 188.815 14.6934C189.359 14.6934 189.782 14.8437 190.083 15.1442C190.383 15.4447 190.533 15.8861 190.533 16.4684V18.3842L190.223 17.6798C190.637 16.6844 191.275 15.9331 192.139 15.4259C193.022 14.9 194.018 14.6371 195.126 14.6371C196.234 14.6371 197.145 14.8437 197.859 15.2569C198.572 15.6701 199.108 16.2993 199.465 17.1445C199.822 17.9709 200 19.0228 200 20.3V27.1179C200 27.7002 199.85 28.151 199.549 28.4703C199.249 28.7708 198.817 28.921 198.253 28.921C197.69 28.921 197.248 28.7708 196.929 28.4703C196.628 28.151 196.478 27.7002 196.478 27.1179V20.469C196.478 19.3984 196.272 18.6189 195.858 18.1306C195.464 17.6423 194.844 17.3981 193.999 17.3981C192.966 17.3981 192.139 17.7268 191.519 18.3842C190.918 19.0228 190.618 19.8774 190.618 20.948V27.1179C190.618 28.32 190.026 28.921 188.843 28.921Z" fill="white"/>
<path fill-rule="evenodd" clip-rule="evenodd" d="M30.581 9.62976L17.7335 2.21532C17.1288 1.86634 16.3838 1.86634 15.7791 2.21532L2.93159 9.62976C2.3269 9.97873 1.95439 10.6237 1.95439 11.3216V26.1505C1.95439 26.8484 2.3269 27.4934 2.93159 27.8423L15.7791 35.2568C16.3838 35.6058 17.1288 35.6058 17.7335 35.2568L30.581 27.8423C31.1857 27.4934 31.5582 26.8484 31.5582 26.1505V11.3216C31.5582 10.6237 31.1857 9.97873 30.581 9.62976ZM18.7107 0.523462C17.5013 -0.174487 16.0113 -0.174487 14.8019 0.523461L1.95439 7.9379C0.74501 8.63585 0 9.92571 0 11.3216V26.1505C0 27.5464 0.74501 28.8363 1.95439 29.5342L14.8019 36.9486C16.0113 37.6466 17.5013 37.6466 18.7107 36.9486L31.5582 29.5342C32.7676 28.8363 33.5126 27.5464 33.5126 26.1505V11.3216C33.5126 9.92571 32.7676 8.63585 31.5582 7.9379L18.7107 0.523462Z" fill="white"/>
<path d="M14.7979 10.279C16.0098 9.58099 17.5028 9.58099 18.7147 10.279L23.1187 12.8156C24.3305 13.5136 25.0771 14.8036 25.0771 16.1996V21.2728C25.0771 22.6688 24.3305 23.9588 23.1186 24.6568L18.7147 27.1933C17.5028 27.8914 16.0098 27.8914 14.7979 27.1933L10.394 24.6568C9.18209 23.9588 8.43555 22.6688 8.43555 21.2727V16.1996C8.43555 14.8036 9.18209 13.5136 10.394 12.8156L14.7979 10.279Z" fill="white" fill-opacity="0.4"/>
<path fill-rule="evenodd" clip-rule="evenodd" d="M22.1394 14.5076L17.7355 11.971C17.1296 11.622 16.383 11.622 15.7771 11.971L11.3732 14.5076C10.7672 14.8566 10.394 15.5016 10.394 16.1996V21.2727C10.394 21.9708 10.7672 22.6158 11.3732 22.9648L15.7771 25.5013C16.383 25.8503 17.1296 25.8503 17.7355 25.5013L22.1394 22.9648C22.7454 22.6158 23.1186 21.9708 23.1186 21.2728V16.1996C23.1186 15.5016 22.7454 14.8566 22.1394 14.5076ZM18.7147 10.279C17.5028 9.58099 16.0098 9.58099 14.7979 10.279L10.394 12.8156C9.18209 13.5136 8.43555 14.8036 8.43555 16.1996V21.2727C8.43555 22.6688 9.18209 23.9588 10.394 24.6568L14.7979 27.1933C16.0098 27.8914 17.5028 27.8914 18.7147 27.1933L23.1186 24.6568C24.3305 23.9588 25.0771 22.6688 25.0771 21.2728V16.1996C25.0771 14.8036 24.3305 13.5136 23.1187 12.8156L18.7147 10.279Z" fill="white"/>
</svg>
