<svg width="283" height="732" viewBox="0 0 283 732" fill="none" xmlns="http://www.w3.org/2000/svg">
<g clip-path="url(#clip0_112_341)">
<g opacity="0.5">
<path fill-rule="evenodd" clip-rule="evenodd" d="M360.451 238.777C294.358 238.777 240.776 292.358 240.776 358.451C240.776 424.544 294.358 478.125 360.451 478.125C426.563 478.125 480.144 424.544 480.144 358.451C480.144 292.358 426.544 238.777 360.451 238.777ZM238.776 358.451C238.776 291.253 293.253 236.777 360.451 236.777C427.648 236.777 482.144 291.253 482.144 358.451C482.144 425.649 427.667 480.125 360.451 480.125C293.253 480.125 238.776 425.649 238.776 358.451Z" fill="url(#paint0_linear_112_341)"/>
<path fill-rule="evenodd" clip-rule="evenodd" d="M509.948 358.451C509.948 275.891 443.011 208.954 360.47 208.973C277.91 208.973 210.992 275.891 210.992 358.451C210.992 441.011 277.91 507.929 360.47 507.929C443.03 507.929 509.948 441.011 509.948 358.451ZM360.47 207.177C444.003 207.158 511.744 274.899 511.744 358.451C511.744 442.003 444.022 509.725 360.47 509.725C276.918 509.725 209.196 442.003 209.196 358.451C209.196 274.899 276.918 207.177 360.47 207.177Z" fill="url(#paint1_linear_112_341)"/>
<path fill-rule="evenodd" clip-rule="evenodd" d="M360.451 179.17C261.443 179.17 181.17 259.443 181.17 358.451C181.17 457.459 261.443 537.732 360.451 537.732C459.459 537.732 539.732 457.459 539.732 358.451C539.732 259.423 459.479 179.17 360.451 179.17ZM179.578 358.451C179.578 258.563 260.563 177.578 360.451 177.578C460.358 177.578 541.324 258.544 541.324 358.451C541.324 458.339 460.339 539.324 360.451 539.324C260.563 539.324 179.578 458.339 179.578 358.451Z" fill="url(#paint2_linear_112_341)"/>
<path fill-rule="evenodd" clip-rule="evenodd" d="M156.99 310.539C130.454 422.918 200.044 535.532 312.424 562.068C424.804 588.604 537.417 519.014 563.953 406.634C590.489 294.255 520.899 181.641 408.519 155.105C296.14 128.569 183.526 198.159 156.99 310.539ZM312.105 563.419C198.979 536.706 128.927 423.345 155.64 310.22C182.352 197.094 295.713 127.042 408.838 153.754C521.964 180.467 592.016 293.827 565.304 406.953C538.591 520.079 425.231 590.131 312.105 563.419Z" fill="url(#paint3_linear_112_341)"/>
<path fill-rule="evenodd" clip-rule="evenodd" d="M122.649 334.92C109.654 466.208 205.549 583.173 336.836 596.169C468.124 609.164 585.089 513.269 598.084 381.981C611.08 250.694 515.185 133.729 383.897 120.733C252.61 107.738 135.645 203.633 122.649 334.92ZM336.72 597.347C204.781 584.287 108.411 466.742 121.471 334.804C134.531 202.865 252.075 106.495 384.014 119.555C515.953 132.615 612.323 250.16 599.263 382.098C586.203 514.037 468.658 610.407 336.72 597.347Z" fill="url(#paint4_linear_112_341)"/>
<path fill-rule="evenodd" clip-rule="evenodd" d="M93.0106 331.987C78.3948 479.643 186.246 611.191 333.902 625.807C481.559 640.423 613.107 532.572 627.723 384.915C642.338 237.259 534.487 105.711 386.831 91.0951C239.174 76.4793 107.626 184.33 93.0106 331.987ZM333.806 626.782C185.611 612.113 77.3664 480.085 92.0355 331.89C106.705 183.695 238.732 75.4508 386.927 90.1199C535.122 104.789 643.367 236.817 628.698 385.012C614.028 533.207 482.001 641.451 333.806 626.782Z" fill="url(#paint5_linear_112_341)"/>
<path fill-rule="evenodd" clip-rule="evenodd" d="M149.387 147.402C32.8265 263.963 32.8265 452.945 149.387 569.506C265.948 686.067 454.931 686.067 571.492 569.506C688.053 452.945 688.053 263.963 571.492 147.402C454.931 30.8408 265.948 30.8407 149.387 147.402ZM148.839 570.055C31.9749 453.191 31.9749 263.717 148.839 146.853C265.703 29.989 455.177 29.9891 572.041 146.853C688.905 263.717 688.905 453.191 572.041 570.055C455.177 686.919 265.703 686.919 148.839 570.055Z" fill="url(#paint6_linear_112_341)"/>
<path fill-rule="evenodd" clip-rule="evenodd" d="M128.314 126.328C0.113762 254.527 0.113762 462.381 128.314 590.58C256.513 718.78 464.366 718.78 592.566 590.58C720.766 462.38 720.766 254.527 592.566 126.328C464.367 -1.8722 256.513 -1.8722 128.314 126.328ZM127.909 590.985C-0.513969 462.562 -0.513969 254.346 127.909 125.923C256.332 -2.49994 464.548 -2.49994 592.971 125.923C721.394 254.346 721.394 462.561 592.971 590.985C464.547 719.408 256.332 719.408 127.909 590.985Z" fill="url(#paint7_linear_112_341)"/>
<path fill-rule="evenodd" clip-rule="evenodd" d="M360.451 0.3679C162.687 0.3679 2.3679 160.687 2.3679 358.451C2.3679 556.214 162.687 716.534 360.451 716.534C558.214 716.534 718.534 556.214 718.534 358.451C718.534 160.687 558.214 0.3679 360.451 0.3679ZM2 358.451C2 160.484 162.484 0 360.451 0C558.418 0 718.901 160.484 718.901 358.451C718.901 556.418 558.418 716.902 360.451 716.902C162.484 716.902 2 556.418 2 358.451Z" fill="url(#paint8_linear_112_341)"/>
</g>
</g>
<defs>
<linearGradient id="paint0_linear_112_341" x1="-69.2171" y1="-398.703" x2="549.283" y2="735.297" gradientUnits="userSpaceOnUse">
<stop stop-color="#0D7EE7"/>
<stop offset="0.921875" stop-color="#0D7EE7" stop-opacity="0"/>
</linearGradient>
<linearGradient id="paint1_linear_112_341" x1="-69.2171" y1="-398.703" x2="549.283" y2="735.297" gradientUnits="userSpaceOnUse">
<stop stop-color="#0D7EE7"/>
<stop offset="0.921875" stop-color="#0D7EE7" stop-opacity="0"/>
</linearGradient>
<linearGradient id="paint2_linear_112_341" x1="-69.2171" y1="-398.703" x2="549.283" y2="735.297" gradientUnits="userSpaceOnUse">
<stop stop-color="#0D7EE7"/>
<stop offset="0.921875" stop-color="#0D7EE7" stop-opacity="0"/>
</linearGradient>
<linearGradient id="paint3_linear_112_341" x1="-69.2171" y1="-398.703" x2="549.283" y2="735.297" gradientUnits="userSpaceOnUse">
<stop stop-color="#0D7EE7"/>
<stop offset="0.921875" stop-color="#0D7EE7" stop-opacity="0"/>
</linearGradient>
<linearGradient id="paint4_linear_112_341" x1="-69.2171" y1="-398.703" x2="549.283" y2="735.297" gradientUnits="userSpaceOnUse">
<stop stop-color="#0D7EE7"/>
<stop offset="0.921875" stop-color="#0D7EE7" stop-opacity="0"/>
</linearGradient>
<linearGradient id="paint5_linear_112_341" x1="-69.2171" y1="-398.703" x2="549.283" y2="735.297" gradientUnits="userSpaceOnUse">
<stop stop-color="#0D7EE7"/>
<stop offset="0.921875" stop-color="#0D7EE7" stop-opacity="0"/>
</linearGradient>
<linearGradient id="paint6_linear_112_341" x1="-69.2171" y1="-398.703" x2="549.283" y2="735.297" gradientUnits="userSpaceOnUse">
<stop stop-color="#0D7EE7"/>
<stop offset="0.921875" stop-color="#0D7EE7" stop-opacity="0"/>
</linearGradient>
<linearGradient id="paint7_linear_112_341" x1="-69.2171" y1="-398.703" x2="549.283" y2="735.297" gradientUnits="userSpaceOnUse">
<stop stop-color="#0D7EE7"/>
<stop offset="0.921875" stop-color="#0D7EE7" stop-opacity="0"/>
</linearGradient>
<linearGradient id="paint8_linear_112_341" x1="-69.2171" y1="-398.703" x2="549.283" y2="735.297" gradientUnits="userSpaceOnUse">
<stop stop-color="#0D7EE7"/>
<stop offset="0.921875" stop-color="#0D7EE7" stop-opacity="0"/>
</linearGradient>
<clipPath id="clip0_112_341">
<rect width="283" height="732" fill="white"/>
</clipPath>
</defs>
</svg>
