<svg width="315" height="732" viewBox="0 0 315 732" fill="none" xmlns="http://www.w3.org/2000/svg">
<g clip-path="url(#clip0_112_340)">
<g opacity="0.5">
<path fill-rule="evenodd" clip-rule="evenodd" d="M-45.5493 246.777C-111.642 246.777 -165.224 300.358 -165.224 366.451C-165.224 432.544 -111.642 486.125 -45.5493 486.125C20.5631 486.125 74.1442 432.544 74.1442 366.451C74.1442 300.358 20.544 246.777 -45.5493 246.777ZM-167.224 366.451C-167.224 299.253 -112.747 244.777 -45.5493 244.777C21.6481 244.777 76.1442 299.253 76.1442 366.451C76.1442 433.649 21.6675 488.125 -45.5493 488.125C-112.747 488.125 -167.224 433.649 -167.224 366.451Z" fill="url(#paint0_linear_112_340)"/>
<path fill-rule="evenodd" clip-rule="evenodd" d="M103.948 366.451C103.948 283.891 37.0111 216.954 -45.5298 216.973C-128.09 216.973 -195.008 283.891 -195.008 366.451C-195.008 449.011 -128.09 515.929 -45.5298 515.929C37.0305 515.929 103.948 449.011 103.948 366.451ZM-45.5298 215.177C38.0033 215.158 105.744 282.899 105.744 366.451C105.744 450.003 38.0224 517.725 -45.5298 517.725C-129.082 517.725 -196.804 450.003 -196.804 366.451C-196.804 282.899 -129.082 215.177 -45.5298 215.177Z" fill="url(#paint1_linear_112_340)"/>
<path fill-rule="evenodd" clip-rule="evenodd" d="M-45.549 187.17C-144.557 187.17 -224.83 267.443 -224.83 366.451C-224.83 465.459 -144.557 545.732 -45.549 545.732C53.4593 545.732 133.732 465.459 133.732 366.451C133.732 267.423 53.4785 187.17 -45.549 187.17ZM-226.422 366.451C-226.422 266.563 -145.437 185.578 -45.549 185.578C54.3578 185.578 135.324 266.544 135.324 366.451C135.324 466.339 54.3385 547.324 -45.549 547.324C-145.437 547.324 -226.422 466.339 -226.422 366.451Z" fill="url(#paint2_linear_112_340)"/>
<path fill-rule="evenodd" clip-rule="evenodd" d="M-249.01 318.539C-275.546 430.918 -205.956 543.532 -93.576 570.068C18.8036 596.604 131.417 527.014 157.953 414.634C184.489 302.255 114.899 189.641 2.51935 163.105C-109.86 136.569 -222.474 206.159 -249.01 318.539ZM-93.895 571.419C-207.021 544.706 -277.073 431.345 -250.36 318.22C-223.648 205.094 -110.287 135.042 2.83832 161.754C115.964 188.467 186.016 301.827 159.304 414.953C132.591 528.079 19.2307 598.131 -93.895 571.419Z" fill="url(#paint3_linear_112_340)"/>
<path fill-rule="evenodd" clip-rule="evenodd" d="M-283.351 342.92C-296.346 474.208 -200.451 591.173 -69.1636 604.169C62.1242 617.164 179.089 521.269 192.084 389.981C205.08 258.694 109.185 141.729 -22.1027 128.733C-153.39 115.738 -270.355 211.633 -283.351 342.92ZM-69.2802 605.347C-201.219 592.287 -297.589 474.742 -284.529 342.804C-271.469 210.865 -153.925 114.495 -21.986 127.555C109.953 140.615 206.323 258.16 193.263 390.098C180.203 522.037 62.6583 618.407 -69.2802 605.347Z" fill="url(#paint4_linear_112_340)"/>
<path fill-rule="evenodd" clip-rule="evenodd" d="M-312.989 339.987C-327.605 487.643 -219.754 619.191 -72.0976 633.807C75.559 648.423 207.107 540.572 221.723 392.915C236.338 245.259 128.487 113.711 -19.1692 99.0951C-166.826 84.4793 -298.374 192.33 -312.989 339.987ZM-72.1941 634.782C-220.389 620.113 -328.634 488.085 -313.965 339.89C-299.295 191.695 -167.268 83.4508 -19.0726 98.1199C129.123 112.789 237.367 244.817 222.698 393.012C208.028 541.207 76.001 649.451 -72.1941 634.782Z" fill="url(#paint5_linear_112_340)"/>
<path fill-rule="evenodd" clip-rule="evenodd" d="M-256.613 155.402C-373.173 271.963 -373.173 460.945 -256.613 577.506C-140.052 694.067 48.9311 694.067 165.492 577.506C282.053 460.945 282.053 271.963 165.492 155.402C48.9311 38.8408 -140.052 38.8407 -256.613 155.402ZM-257.161 578.055C-374.025 461.191 -374.025 271.717 -257.161 154.853C-140.297 37.989 49.1768 37.9891 166.041 154.853C282.905 271.717 282.905 461.191 166.041 578.055C49.1768 694.919 -140.297 694.919 -257.161 578.055Z" fill="url(#paint6_linear_112_340)"/>
<path fill-rule="evenodd" clip-rule="evenodd" d="M-277.686 134.328C-405.886 262.527 -405.886 470.381 -277.686 598.58C-149.487 726.78 58.3664 726.78 186.566 598.58C314.766 470.38 314.766 262.527 186.566 134.328C58.3665 6.1278 -149.487 6.1278 -277.686 134.328ZM-278.091 598.985C-406.514 470.562 -406.514 262.346 -278.091 133.923C-149.668 5.50006 58.5475 5.50006 186.971 133.923C315.394 262.346 315.394 470.561 186.971 598.985C58.5475 727.408 -149.668 727.408 -278.091 598.985Z" fill="url(#paint7_linear_112_340)"/>
<path fill-rule="evenodd" clip-rule="evenodd" d="M-45.5493 8.3679C-243.313 8.3679 -403.632 168.687 -403.632 366.451C-403.632 564.214 -243.313 724.534 -45.5493 724.534C152.214 724.534 312.534 564.214 312.534 366.451C312.534 168.687 152.214 8.3679 -45.5493 8.3679ZM-404 366.451C-404 168.484 -243.516 8 -45.5493 8C152.418 8 312.901 168.484 312.901 366.451C312.901 564.418 152.418 724.902 -45.5493 724.902C-243.516 724.902 -404 564.418 -404 366.451Z" fill="url(#paint8_linear_112_340)"/>
</g>
</g>
<defs>
<linearGradient id="paint0_linear_112_340" x1="-475.217" y1="-390.703" x2="143.283" y2="743.297" gradientUnits="userSpaceOnUse">
<stop stop-color="#0D7EE7"/>
<stop offset="0.921875" stop-color="#0D7EE7" stop-opacity="0"/>
</linearGradient>
<linearGradient id="paint1_linear_112_340" x1="-475.217" y1="-390.703" x2="143.283" y2="743.297" gradientUnits="userSpaceOnUse">
<stop stop-color="#0D7EE7"/>
<stop offset="0.921875" stop-color="#0D7EE7" stop-opacity="0"/>
</linearGradient>
<linearGradient id="paint2_linear_112_340" x1="-475.217" y1="-390.703" x2="143.283" y2="743.297" gradientUnits="userSpaceOnUse">
<stop stop-color="#0D7EE7"/>
<stop offset="0.921875" stop-color="#0D7EE7" stop-opacity="0"/>
</linearGradient>
<linearGradient id="paint3_linear_112_340" x1="-475.217" y1="-390.703" x2="143.283" y2="743.297" gradientUnits="userSpaceOnUse">
<stop stop-color="#0D7EE7"/>
<stop offset="0.921875" stop-color="#0D7EE7" stop-opacity="0"/>
</linearGradient>
<linearGradient id="paint4_linear_112_340" x1="-475.217" y1="-390.703" x2="143.283" y2="743.297" gradientUnits="userSpaceOnUse">
<stop stop-color="#0D7EE7"/>
<stop offset="0.921875" stop-color="#0D7EE7" stop-opacity="0"/>
</linearGradient>
<linearGradient id="paint5_linear_112_340" x1="-475.217" y1="-390.703" x2="143.283" y2="743.297" gradientUnits="userSpaceOnUse">
<stop stop-color="#0D7EE7"/>
<stop offset="0.921875" stop-color="#0D7EE7" stop-opacity="0"/>
</linearGradient>
<linearGradient id="paint6_linear_112_340" x1="-475.217" y1="-390.703" x2="143.283" y2="743.297" gradientUnits="userSpaceOnUse">
<stop stop-color="#0D7EE7"/>
<stop offset="0.921875" stop-color="#0D7EE7" stop-opacity="0"/>
</linearGradient>
<linearGradient id="paint7_linear_112_340" x1="-475.217" y1="-390.703" x2="143.283" y2="743.297" gradientUnits="userSpaceOnUse">
<stop stop-color="#0D7EE7"/>
<stop offset="0.921875" stop-color="#0D7EE7" stop-opacity="0"/>
</linearGradient>
<linearGradient id="paint8_linear_112_340" x1="-475.217" y1="-390.703" x2="143.283" y2="743.297" gradientUnits="userSpaceOnUse">
<stop stop-color="#0D7EE7"/>
<stop offset="0.921875" stop-color="#0D7EE7" stop-opacity="0"/>
</linearGradient>
<clipPath id="clip0_112_340">
<rect width="315" height="732" fill="white"/>
</clipPath>
</defs>
</svg>
