<svg width="64" height="64" viewBox="0 0 64 64" fill="none" xmlns="http://www.w3.org/2000/svg">
<g clip-path="url(#clip0_64_1265)">
<path d="M63.0394 39.741C58.7654 56.884 41.4024 67.317 24.2574 63.042C7.11937 58.768 -3.31363 41.404 0.962367 24.262C5.23437 7.11699 22.5974 -3.31701 39.7374 0.956985C56.8814 5.23099 67.3134 22.597 63.0394 39.741Z" fill="#F0F0F0"/>
<g clip-path="url(#clip1_64_1265)">
<path d="M31.9965 12L31.7281 12.9115V39.3602L31.9965 39.6279L44.2734 32.3709L31.9965 12Z" fill="#343434"/>
<path d="M31.9965 12L19.7192 32.3709L31.9965 39.6279V26.7905V12Z" fill="#8C8C8C"/>
<path d="M31.9965 41.9523L31.8452 42.1368V51.5582L31.9965 51.9997L44.2809 34.6991L31.9965 41.9523Z" fill="#3C3C3B"/>
<path d="M31.9965 51.9997V41.9523L19.7192 34.6991L31.9965 51.9997Z" fill="#8C8C8C"/>
<path d="M31.9965 39.628L44.2734 32.371L31.9965 26.7905V39.628Z" fill="#141414"/>
<path d="M19.7192 32.371L31.9965 39.628V26.7905L19.7192 32.371Z" fill="#393939"/>
</g>
</g>
<defs>
<clipPath id="clip0_64_1265">
<rect width="64" height="64" fill="white"/>
</clipPath>
<clipPath id="clip1_64_1265">
<rect width="40" height="40" fill="white" transform="translate(12 12)"/>
</clipPath>
</defs>
</svg>
