<svg width="64" height="64" viewBox="0 0 64 64" fill="none" xmlns="http://www.w3.org/2000/svg">
<g clip-path="url(#clip0_64_1281)">
<path d="M63.0394 39.741C58.7654 56.884 41.4024 67.317 24.2574 63.042C7.11937 58.768 -3.31363 41.404 0.962367 24.262C5.23437 7.11699 22.5974 -3.31701 39.7374 0.956985C56.8814 5.23099 67.3134 22.597 63.0394 39.741Z" fill="#50AF95"/>
<path fill-rule="evenodd" clip-rule="evenodd" d="M35.8659 34.8143C35.6499 34.8305 34.5344 34.8971 32.0459 34.8971C30.0666 34.8971 28.6613 34.8377 28.1683 34.8143C20.5194 34.4779 14.8101 33.1465 14.8101 31.5524C14.8101 29.9583 20.5194 28.6286 28.1683 28.2868V33.4883C28.6685 33.5243 30.1008 33.6089 32.0801 33.6089C34.4552 33.6089 35.6445 33.5099 35.8587 33.4901V28.2904C43.4914 28.6304 49.1881 29.9619 49.1881 31.5524C49.1881 33.1429 43.4932 34.4743 35.8587 34.8125L35.8659 34.8143ZM35.8659 27.7524V23.0979H46.5179V16H17.5163V23.0979H28.1665V27.7506C19.51 28.1483 13 29.8629 13 31.9176C13 33.9723 19.51 35.6851 28.1665 36.0846V51H35.8641V36.0792C44.5008 35.6815 51 33.9687 51 31.9158C51 29.8629 44.5062 28.1501 35.8641 27.7506L35.8659 27.7524Z" fill="white"/>
</g>
<defs>
<clipPath id="clip0_64_1281">
<rect width="64" height="64" fill="white"/>
</clipPath>
</defs>
</svg>
