<svg width="64" height="64" viewBox="0 0 64 64" fill="none" xmlns="http://www.w3.org/2000/svg">
<g clip-path="url(#clip0_64_1296)">
<path d="M63.0394 39.741C58.7654 56.884 41.4024 67.317 24.2574 63.042C7.11937 58.768 -3.31363 41.404 0.962367 24.262C5.23437 7.11699 22.5974 -3.31701 39.7374 0.956985C56.8814 5.23099 67.3134 22.597 63.0394 39.741Z" fill="#F5AC37"/>
<path d="M34.0578 33.9093H44.3092C44.5278 33.9093 44.631 33.9093 44.6468 33.6228C44.7305 32.5799 44.7305 31.531 44.6468 30.4869C44.6468 30.2841 44.546 30.2004 44.3262 30.2004H23.9241C23.6716 30.2004 23.6036 30.2841 23.6036 30.5209V33.522C23.6036 33.9093 23.6036 33.9093 24.0079 33.9093H34.0578ZM43.5019 26.693C43.531 26.6165 43.531 26.5327 43.5019 26.4575C43.3307 26.0847 43.128 25.729 42.8924 25.3952C42.5379 24.8246 42.1203 24.2989 41.6444 23.8266C41.4198 23.5413 41.16 23.2851 40.8686 23.0678C39.4093 21.8259 37.6745 20.9469 35.8097 20.505C34.8688 20.2937 33.9073 20.193 32.9433 20.2015H23.8889C23.6364 20.2015 23.6024 20.3022 23.6024 20.522V26.5072C23.6024 26.7598 23.6024 26.8277 23.9229 26.8277H43.3805C43.3805 26.8277 43.5492 26.7938 43.5832 26.693H43.5007H43.5019ZM43.5019 37.4167C43.2154 37.3851 42.9264 37.3851 42.6399 37.4167H23.9411C23.6886 37.4167 23.6036 37.4167 23.6036 37.7542V43.6059C23.6036 43.8755 23.6036 43.9434 23.9411 43.9434H32.5742C32.987 43.975 33.3998 43.9459 33.8041 43.8597C35.057 43.7698 36.2892 43.4979 37.4644 43.0499C37.8918 42.9018 38.3045 42.7087 38.6943 42.4769H38.812C40.8358 41.4243 42.4797 39.7707 43.5165 37.7409C43.5165 37.7409 43.6342 37.4859 43.5019 37.4191V37.4167ZM20.2152 46.9774V46.8766V42.9479V41.6161V37.6534C20.2152 37.4337 20.2152 37.4009 19.9457 37.4009H16.2865C16.0838 37.4009 16 37.4009 16 37.1314V33.9275H19.9117C20.1302 33.9275 20.2152 33.9275 20.2152 33.641V30.4711C20.2152 30.2684 20.2152 30.2186 19.9457 30.2186H16.2865C16.0838 30.2186 16 30.2186 16 29.9491V26.9819C16 26.7962 16 26.7464 16.2695 26.7464H19.8947C20.1472 26.7464 20.2152 26.7464 20.2152 26.4259V17.3375C20.2152 17.068 20.2152 17 20.5527 17H33.1982C34.1161 17.0364 35.0278 17.1372 35.9299 17.3035C37.7886 17.6471 39.5744 18.3112 41.2073 19.2593C42.2903 19.8967 43.287 20.6664 44.1745 21.5527C44.8422 22.2459 45.4444 22.9962 45.9786 23.795C46.5091 24.6048 46.9498 25.4704 47.2958 26.3749C47.3383 26.6104 47.5641 26.7695 47.7996 26.7294H50.8178C51.2051 26.7294 51.2051 26.7294 51.222 27.1009V29.8665C51.222 30.136 51.1213 30.204 50.8506 30.204H48.5232C48.2877 30.204 48.2197 30.204 48.2367 30.5075C48.329 31.5346 48.329 32.5654 48.2367 33.5924C48.2367 33.879 48.2367 33.9129 48.5584 33.9129H51.2208C51.3386 34.0647 51.2208 34.2165 51.2208 34.3694C51.2378 34.5649 51.2378 34.7628 51.2208 34.9582V36.9991C51.2208 37.2856 51.1371 37.3706 50.8833 37.3706H47.6964C47.4743 37.3281 47.2582 37.4701 47.2072 37.6911C46.4484 39.6639 45.2343 41.4328 43.6658 42.8508C43.0928 43.3668 42.4906 43.8524 41.8617 44.3004C41.1867 44.6889 40.5299 45.0931 39.8379 45.4137C38.5644 45.9867 37.2289 46.4092 35.8582 46.6775C34.5568 46.9106 33.2371 47.0162 31.9126 46.998H20.2103V46.981L20.2152 46.9774Z" fill="#FEFEFD"/>
</g>
<defs>
<clipPath id="clip0_64_1296">
<rect width="64" height="64" fill="white"/>
</clipPath>
</defs>
</svg>
