<svg width="64" height="64" viewBox="0 0 64 64" fill="none" xmlns="http://www.w3.org/2000/svg">
<g clip-path="url(#clip0_64_1287)">
<path d="M63.0393 39.741C58.7653 56.884 41.4023 67.317 24.2573 63.042C7.1193 58.768 -3.31369 41.404 0.962306 24.262C5.23431 7.11699 22.5973 -3.31701 39.7373 0.956985C56.8813 5.23099 67.3133 22.597 63.0393 39.741Z" fill="#2775CA"/>
<path d="M39.4959 36.0461C39.4959 31.9999 37.0681 30.6127 32.2126 30.0347C28.7444 29.5722 28.0507 28.6474 28.0507 27.0287C28.0507 25.41 29.2069 24.3699 31.519 24.3699C33.5999 24.3699 34.7561 25.0635 35.334 26.7976C35.4497 27.1444 35.7965 27.3756 36.1434 27.3756H37.9929C38.4554 27.3756 38.8022 27.0287 38.8022 26.5665V26.4508C38.3397 23.9073 36.2588 21.9421 33.5999 21.711V18.9364C33.5999 18.4739 33.2531 18.1271 32.6751 18.0114H30.941C30.4785 18.0114 30.1317 18.3582 30.016 18.9364V21.5953C26.5478 22.0578 24.3514 24.3699 24.3514 27.2601C24.3514 31.0752 26.6635 32.5779 31.519 33.1561C34.7561 33.7341 35.7965 34.4277 35.7965 36.2775C35.7965 38.1273 34.1779 39.3989 31.9815 39.3989C28.9755 39.3989 27.935 38.1271 27.5882 36.3929C27.4728 35.9307 27.126 35.6993 26.7792 35.6993H24.8136C24.3514 35.6993 24.0046 36.0461 24.0046 36.5086V36.6243C24.4668 39.5143 26.3166 41.5953 30.1317 42.1735V44.9481C30.1317 45.4103 30.4785 45.7571 31.0564 45.8728H32.7906C33.2531 45.8728 33.5999 45.526 33.7156 44.9481V42.1735C37.1838 41.5953 39.4959 39.1675 39.4959 36.0461Z" fill="white"/>
<path d="M25.9698 48.185C16.9524 44.9481 12.328 34.8903 15.6808 25.9883C17.4149 21.1328 21.23 17.4335 25.9698 15.6993C26.4323 15.4682 26.6635 15.1214 26.6635 14.5432V12.9248C26.6635 12.4622 26.4323 12.1154 25.9698 12C25.8541 12 25.623 12 25.5073 12.1154C14.5247 15.5836 8.51299 27.2602 11.9812 38.2428C14.0621 44.7167 19.0334 49.6879 25.5073 51.7689C25.9698 52 26.4323 51.7689 26.5478 51.3064C26.6635 51.1909 26.6635 51.0752 26.6635 50.8441V49.2254C26.6635 48.8786 26.3166 48.4164 25.9698 48.185ZM38.2243 12.1154C37.7618 11.8843 37.2993 12.1154 37.1838 12.5779C37.0681 12.6936 37.0681 12.8091 37.0681 13.0405V14.6589C37.0681 15.1214 37.4149 15.5836 37.7618 15.815C46.7792 19.0519 51.4035 29.1097 48.0507 38.0117C46.3166 42.8672 42.5016 46.5665 37.7618 48.3007C37.2992 48.5318 37.0681 48.8786 37.0681 49.4568V51.0752C37.0681 51.5378 37.2992 51.8846 37.7618 52C37.8775 52 38.1086 52 38.2243 51.8846C49.2069 48.4164 55.2186 36.7398 51.7504 25.7572C49.6694 19.1676 44.5825 14.1964 38.2243 12.1154Z" fill="white"/>
</g>
<defs>
<clipPath id="clip0_64_1287">
<rect width="64" height="64" fill="white"/>
</clipPath>
</defs>
</svg>
