<svg width="64" height="64" viewBox="0 0 64 64" fill="none" xmlns="http://www.w3.org/2000/svg">
<g clip-path="url(#clip0_64_1303)">
<path d="M63.9921 31.9968C63.9921 49.6676 49.6683 63.9935 31.9963 63.9935C14.3243 63.9935 0.000488281 49.6676 0.000488281 31.9968C0.000488281 14.3261 14.3247 0 31.9963 0C49.668 0 63.9921 14.3247 63.9921 31.9968Z" fill="white"/>
<path d="M31.9965 0C14.3308 0 -0.0184344 14.3463 0.00405472 31.9958C0.00848439 35.527 0.571563 38.9237 1.62838 42.1009H11.2012V15.1844L31.9965 35.9795L52.7907 15.1844V42.1014H62.3656C63.4239 38.9243 63.9841 35.5276 63.9904 31.9963C64.0206 14.3284 49.664 0.0042593 31.9965 0.0042593V0Z" fill="#F26822"/>
<path d="M27.2141 40.76L18.1389 31.6843V48.6217H11.2005L4.65332 48.6229C10.2693 57.8366 20.4187 63.9999 31.9965 63.9999C43.5742 63.9999 53.7241 57.8352 59.3411 48.6215H45.8519V31.6843L36.7762 40.76L31.9954 45.5408L27.2145 40.76H27.2141Z" fill="#4D4D4D"/>
</g>
<defs>
<clipPath id="clip0_64_1303">
<rect width="63.9932" height="64" fill="white"/>
</clipPath>
</defs>
</svg>
